<?xml version="1.0" encoding="UTF-8"?>
<!DOCTYPE svg PUBLIC "-//W3C//DTD SVG 1.1//EN" "http://www.w3.org/Graphics/SVG/1.1/DTD/svg11.dtd">
<svg xmlns="http://www.w3.org/2000/svg" version="1.1" width="819px" height="187px" style="shape-rendering:geometricPrecision; text-rendering:geometricPrecision; image-rendering:optimizeQuality; fill-rule:evenodd; clip-rule:evenodd" xmlns:xlink="http://www.w3.org/1999/xlink">
<g><path style="opacity:0.145" fill="#feeedd" d="M 269.5,4.5 C 251.155,1.93907 232.822,1.93907 214.5,4.5C 214.918,3.77842 215.584,3.27842 216.5,3C 232.832,1.02369 249.165,1.02369 265.5,3C 267.058,3.21003 268.391,3.71003 269.5,4.5 Z"/></g>
<g><path style="opacity:1" fill="#f7941e" d="M 269.5,4.5 C 272.713,4.19 275.713,4.52333 278.5,5.5C 288.59,8.63299 298.923,11.633 309.5,14.5C 310.492,14.3284 311.158,14.6618 311.5,15.5C 311.833,16.1667 312.167,16.8333 312.5,17.5C 312.5,33.8333 312.5,50.1667 312.5,66.5C 300.833,66.5 289.167,66.5 277.5,66.5C 276.609,65.8902 275.609,65.5569 274.5,65.5C 273.08,61.7833 270.413,59.4499 266.5,58.5C 266.027,57.0937 265.027,56.427 263.5,56.5C 262.365,54.7868 260.698,54.1201 258.5,54.5C 256.901,54.7678 255.568,54.4345 254.5,53.5C 250.354,52.353 246.02,52.1864 241.5,53C 239.256,53.0496 237.589,53.8829 236.5,55.5C 234.447,55.4021 232.78,56.0687 231.5,57.5C 223.79,61.2189 218.623,67.2189 216,75.5C 214.077,84.4853 214.077,93.4853 216,102.5C 216.377,103.942 217.21,104.942 218.5,105.5C 218.5,105.833 218.5,106.167 218.5,106.5C 219.36,111.353 222.027,114.686 226.5,116.5C 228.51,119.027 231.177,120.861 234.5,122C 249.467,124.982 264.467,124.982 279.5,122C 285.767,121 291.767,119.5 297.5,117.5C 301.837,117.416 305.837,116.416 309.5,114.5C 310.833,114.5 312.167,114.5 313.5,114.5C 313.819,131.91 313.485,149.244 312.5,166.5C 311.07,167.537 309.403,168.204 307.5,168.5C 299.127,169.957 290.794,171.624 282.5,173.5C 278.267,173.539 274.267,174.205 270.5,175.5C 264.87,176.292 259.203,176.625 253.5,176.5C 239.448,176.754 225.448,176.088 211.5,174.5C 208.545,173.841 205.545,173.508 202.5,173.5C 197.017,171.272 191.35,169.272 185.5,167.5C 184.508,167.672 183.842,167.338 183.5,166.5C 178.208,163.183 172.874,159.849 167.5,156.5C 162.756,151.427 158.089,146.427 153.5,141.5C 151.668,137.164 149.335,133.164 146.5,129.5C 145.091,123.802 143.091,118.468 140.5,113.5C 140.5,112.833 140.5,112.167 140.5,111.5C 137.86,95.8503 137.86,80.1836 140.5,64.5C 140.5,64.1667 140.5,63.8333 140.5,63.5C 142.944,58.0949 144.944,52.4283 146.5,46.5C 148.531,45.4613 149.864,43.7946 150.5,41.5C 151.529,39.4832 152.529,37.4832 153.5,35.5C 159.894,29.1013 166.561,23.1013 173.5,17.5C 174.514,16.3263 175.847,15.6596 177.5,15.5C 183.177,12.5795 189.177,10.5795 195.5,9.5C 199.371,8.15983 203.371,7.3265 207.5,7C 208.942,6.62325 209.942,5.78991 210.5,4.5C 211.833,3.16667 213.167,3.16667 214.5,4.5C 232.822,1.93907 251.155,1.93907 269.5,4.5 Z"/></g>
<g><path style="opacity:0.519" fill="#fccb91" d="M 482.5,5.5 C 482.5,5.83333 482.5,6.16667 482.5,6.5C 458.071,5.83797 433.571,5.50464 409,5.5C 384.491,5.50023 360.324,6.1669 336.5,7.5C 336.167,7.5 335.833,7.5 335.5,7.5C 335.5,6.5 335.5,5.5 335.5,4.5C 384.67,4.16782 433.67,4.50115 482.5,5.5 Z"/></g>
<g><path style="opacity:0.52" fill="#fccb92" d="M 628.5,5.5 C 595.833,5.5 563.167,5.5 530.5,5.5C 530.737,6.79105 530.404,7.79105 529.5,8.5C 529.5,8.16667 529.5,7.83333 529.5,7.5C 529.5,6.5 529.5,5.5 529.5,4.5C 562.671,4.16839 595.671,4.50172 628.5,5.5 Z"/></g>
<g><path style="opacity:1" fill="#fcb463" d="M 210.5,4.5 C 209.942,5.78991 208.942,6.62325 207.5,7C 203.371,7.3265 199.371,8.15983 195.5,9.5C 196.59,8.14294 197.924,7.14294 199.5,6.5C 203.071,5.35778 206.738,4.69111 210.5,4.5 Z"/></g>
<g><path style="opacity:0.031" fill="#fee1c1" d="M 278.5,5.5 C 289.461,6.71334 299.794,9.71334 309.5,14.5C 298.923,11.633 288.59,8.63299 278.5,5.5 Z"/></g>
<g><path style="opacity:1" fill="#f7941e" d="M 482.5,6.5 C 482.5,24.8333 482.5,43.1667 482.5,61.5C 475.5,61.5 468.5,61.5 461.5,61.5C 459.772,59.7745 457.772,58.4411 455.5,57.5C 454.508,57.6716 453.842,57.3382 453.5,56.5C 452.393,54.0311 450.393,53.0311 447.5,53.5C 446.942,52.2101 445.942,51.3768 444.5,51C 441.243,49.9571 437.91,49.4571 434.5,49.5C 432.393,48.5318 430.059,48.1984 427.5,48.5C 427.5,57.8333 427.5,67.1667 427.5,76.5C 427.917,77.1239 428.584,77.4573 429.5,77.5C 435.64,75.831 441.64,74.1643 447.5,72.5C 448.167,72.5 448.833,72.5 449.5,72.5C 452.482,72.0371 455.482,71.7038 458.5,71.5C 458.5,84.1667 458.5,96.8333 458.5,109.5C 456.5,109.5 454.5,109.5 452.5,109.5C 444.431,106.979 436.097,104.979 427.5,103.5C 427.5,110.5 427.5,117.5 427.5,124.5C 428.833,124.5 430.167,124.5 431.5,124.5C 432.959,124.433 434.292,124.766 435.5,125.5C 437.539,126.578 439.706,127.578 442,128.5C 442.828,144.006 442.661,159.339 441.5,174.5C 406.5,174.5 371.5,174.5 336.5,174.5C 336.333,158.83 336.5,143.163 337,127.5C 339.607,126.877 342.107,126.21 344.5,125.5C 346.764,124.781 349.097,124.448 351.5,124.5C 351.5,101.833 351.5,79.1667 351.5,56.5C 350.5,56.5 349.5,56.5 348.5,56.5C 344.774,54.8699 340.774,53.8699 336.5,53.5C 336.5,38.1667 336.5,22.8333 336.5,7.5C 360.324,6.1669 384.491,5.50023 409,5.5C 433.571,5.50464 458.071,5.83797 482.5,6.5 Z"/></g>
<g><path style="opacity:1" fill="#f7941e" d="M 628.5,5.5 C 629.569,10.4793 631.235,15.146 633.5,19.5C 633.259,21.8984 633.926,23.8984 635.5,25.5C 635.5,25.8333 635.5,26.1667 635.5,26.5C 636.595,32.9126 638.595,38.9126 641.5,44.5C 642.321,51.2926 644.321,57.6259 647.5,63.5C 648.434,64.5676 648.768,65.901 648.5,67.5C 649.565,73.1134 651.231,78.4467 653.5,83.5C 653.41,86.1522 654.076,88.4855 655.5,90.5C 656.963,96.2239 658.63,101.891 660.5,107.5C 660.259,109.898 660.926,111.898 662.5,113.5C 662.511,115.017 663.177,116.184 664.5,117C 668.775,118.158 673.109,118.992 677.5,119.5C 677.5,137.833 677.5,156.167 677.5,174.5C 655.49,174.833 633.49,174.5 611.5,173.5C 611.145,172.478 610.478,171.811 609.5,171.5C 608.096,163.137 606.096,154.971 603.5,147C 587.5,146.333 571.5,146.333 555.5,147C 554.663,148.011 554.33,149.178 554.5,150.5C 554.784,152.415 554.451,154.081 553.5,155.5C 551.11,161.129 549.777,167.129 549.5,173.5C 526.908,174.489 504.242,174.822 481.5,174.5C 481.5,156.167 481.5,137.833 481.5,119.5C 483.786,119.405 485.786,118.738 487.5,117.5C 487.833,117.5 488.167,117.5 488.5,117.5C 490.989,117.702 493.323,117.202 495.5,116C 496.337,114.989 496.67,113.822 496.5,112.5C 499.004,106.789 501.004,100.789 502.5,94.5C 502.5,94.1667 502.5,93.8333 502.5,93.5C 505.609,86.5036 507.942,79.1703 509.5,71.5C 514.978,56.8447 519.645,41.8447 523.5,26.5C 525.669,20.6588 527.669,14.6588 529.5,8.5C 530.404,7.79105 530.737,6.79105 530.5,5.5C 563.167,5.5 595.833,5.5 628.5,5.5 Z M 583.5,65.5 C 583.5,66.1667 583.5,66.8333 583.5,67.5C 584.835,77.2045 587.169,86.5379 590.5,95.5C 590.5,96.1667 590.5,96.8333 590.5,97.5C 591.051,100.807 591.384,104.14 591.5,107.5C 583.14,107.831 574.807,107.498 566.5,106.5C 567.309,104.929 567.643,103.262 567.5,101.5C 568.234,100.292 568.567,98.9587 568.5,97.5C 571.111,86.5584 573.945,75.5584 577,64.5C 577.497,62.1902 577.663,59.8568 577.5,57.5C 578.302,56.0484 578.802,54.3817 579,52.5C 580.071,57.0916 581.571,61.4249 583.5,65.5 Z"/></g>
<g><path style="opacity:0.169" fill="#fee6cb" d="M 482.5,5.5 C 483.828,24.3375 483.828,43.3375 482.5,62.5C 475.371,63.8129 468.371,63.8129 461.5,62.5C 461.5,62.1667 461.5,61.8333 461.5,61.5C 468.5,61.5 475.5,61.5 482.5,61.5C 482.5,43.1667 482.5,24.8333 482.5,6.5C 482.5,6.16667 482.5,5.83333 482.5,5.5 Z"/></g>
<g><path style="opacity:0.671" fill="#fabe76" d="M 335.5,7.5 C 335.833,7.5 336.167,7.5 336.5,7.5C 336.5,22.8333 336.5,38.1667 336.5,53.5C 340.774,53.8699 344.774,54.8699 348.5,56.5C 348.167,56.5 347.833,56.5 347.5,56.5C 343.772,56.1564 340.105,55.4898 336.5,54.5C 335.501,38.8475 335.167,23.1808 335.5,7.5 Z"/></g>
<g><path style="opacity:0.471" fill="#fee0bf" d="M 199.5,6.5 C 197.924,7.14294 196.59,8.14294 195.5,9.5C 189.177,10.5795 183.177,12.5795 177.5,15.5C 179.428,13.5259 181.761,12.0259 184.5,11C 189.537,9.32819 194.537,7.82819 199.5,6.5 Z"/></g>
<g><path style="opacity:0.035" fill="#fee9d3" d="M 529.5,7.5 C 529.5,7.83333 529.5,8.16667 529.5,8.5C 527.669,14.6588 525.669,20.6588 523.5,26.5C 524.013,22.447 524.846,18.447 526,14.5C 526.522,11.7187 527.689,9.38537 529.5,7.5 Z"/></g>
<g><path style="opacity:0.29" fill="#fee4c6" d="M 628.5,5.5 C 631.679,9.50205 633.345,14.1687 633.5,19.5C 631.235,15.146 629.569,10.4793 628.5,5.5 Z"/></g>
<g><path style="opacity:0.026" fill="#fffbf7" d="M 311.5,15.5 C 312.496,15.4142 313.329,15.7476 314,16.5C 314.828,33.6717 314.662,50.6717 313.5,67.5C 313.83,50.6583 313.497,33.9916 312.5,17.5C 312.167,16.8333 311.833,16.1667 311.5,15.5 Z"/></g>
<g><path style="opacity:1" fill="#f7941e" d="M 117.5,19.5 C 119.49,41.8087 120.156,64.4754 119.5,87.5C 118.5,88.1667 117.5,88.8333 116.5,89.5C 113.612,88.9898 111.279,89.6565 109.5,91.5C 101.428,93.0368 93.4283,94.8702 85.5,97C 82.6907,98.0934 80.024,99.2601 77.5,100.5C 76.4324,101.434 75.099,101.768 73.5,101.5C 69.514,102.329 65.514,103.163 61.5,104C 59.7139,104.196 58.3805,105.029 57.5,106.5C 67.627,109.948 77.9603,112.615 88.5,114.5C 90.2915,114.366 91.9582,114.699 93.5,115.5C 95.5976,116.935 97.9309,118.102 100.5,119C 106.788,120.655 113.121,122.155 119.5,123.5C 119.5,141.167 119.5,158.833 119.5,176.5C 118.167,176.5 116.833,176.5 115.5,176.5C 113.383,174.345 110.716,173.345 107.5,173.5C 105.898,171.926 103.898,171.259 101.5,171.5C 98.2034,169.399 94.5368,168.065 90.5,167.5C 87.4913,164.682 83.8246,163.349 79.5,163.5C 74.864,161.029 69.864,159.363 64.5,158.5C 63.3646,156.787 61.698,156.12 59.5,156.5C 58.0697,155.463 56.403,154.796 54.5,154.5C 45.2184,150.419 35.5517,147.085 25.5,144.5C 25.1667,144.5 24.8333,144.5 24.5,144.5C 23.3646,142.787 21.698,142.12 19.5,142.5C 19.1667,142.5 18.8333,142.5 18.5,142.5C 13.6837,139.651 8.51699,137.318 3,135.5C 2.33333,110.167 2.33333,84.8333 3,59.5C 10.8999,56.4117 18.7332,53.4117 26.5,50.5C 28.698,50.8799 30.3646,50.2132 31.5,48.5C 36.9654,47.2336 42.2987,45.567 47.5,43.5C 53.043,42.5467 58.043,40.5467 62.5,37.5C 67.9654,36.2336 73.2987,34.567 78.5,32.5C 83.929,31.2532 88.929,29.2532 93.5,26.5C 93.8333,26.5 94.1667,26.5 94.5,26.5C 96.403,26.2041 98.0697,25.5375 99.5,24.5C 105.599,23.1422 111.599,21.4756 117.5,19.5 Z"/></g>
<g><path style="opacity:0.541" fill="#fbc587" d="M 117.5,19.5 C 118.209,18.596 119.209,18.2627 120.5,18.5C 120.831,41.6727 120.498,64.6727 119.5,87.5C 120.156,64.4754 119.49,41.8087 117.5,19.5 Z"/></g>
<g><path style="opacity:0.103" fill="#feedda" d="M 116.5,89.5 C 117.5,88.8333 118.5,88.1667 119.5,87.5C 120.498,64.6727 120.831,41.6727 120.5,18.5C 119.209,18.2627 118.209,18.596 117.5,19.5C 111.599,21.4756 105.599,23.1422 99.5,24.5C 104.593,22.0437 109.926,19.877 115.5,18C 117.473,17.5045 119.473,17.3379 121.5,17.5C 121.667,41.169 121.5,64.8357 121,88.5C 119.644,89.3802 118.144,89.7135 116.5,89.5 Z"/></g>
<g><path style="opacity:1" fill="#f7941e" d="M 720.5,26.5 C 727.079,29.9207 734.079,32.5874 741.5,34.5C 745.11,35.7033 748.777,36.7033 752.5,37.5C 752.47,38.4972 752.97,39.1639 754,39.5C 759.314,40.9484 764.481,42.6151 769.5,44.5C 773.833,45.8333 778.167,47.1667 782.5,48.5C 784.099,48.2322 785.432,48.5655 786.5,49.5C 788.979,51.5675 791.979,52.9009 795.5,53.5C 801.167,55.5 806.833,57.5 812.5,59.5C 812.667,84.8355 812.5,110.169 812,135.5C 806.437,137.688 800.77,139.688 795,141.5C 793.97,141.836 793.47,142.503 793.5,143.5C 792.292,144.234 790.959,144.567 789.5,144.5C 779.69,146.878 770.357,150.211 761.5,154.5C 759.214,154.595 757.214,155.262 755.5,156.5C 746.689,158.545 738.356,161.545 730.5,165.5C 728.786,166.738 726.786,167.405 724.5,167.5C 716.459,169.401 708.792,172.068 701.5,175.5C 699.5,175.833 697.5,176.167 695.5,176.5C 695.5,158.833 695.5,141.167 695.5,123.5C 702.346,121.793 709.013,119.793 715.5,117.5C 719.214,117.41 722.548,116.41 725.5,114.5C 726.167,114.5 726.833,114.5 727.5,114.5C 736.912,112.294 746.246,109.794 755.5,107C 756.902,105.658 756.569,104.824 754.5,104.5C 750.189,103.339 745.855,102.339 741.5,101.5C 740.041,101.567 738.708,101.234 737.5,100.5C 735.824,98.1663 733.491,97.1663 730.5,97.5C 729.167,97.5 727.833,97.5 726.5,97.5C 718.773,94.5646 710.773,92.2312 702.5,90.5C 700.898,88.9261 698.898,88.2594 696.5,88.5C 695.502,65.3393 695.169,42.006 695.5,18.5C 703.644,21.5471 711.977,24.2138 720.5,26.5 Z"/></g>
<g><path style="opacity:0.115" fill="#fee6c9" d="M 720.5,26.5 C 711.977,24.2138 703.644,21.5471 695.5,18.5C 695.169,42.006 695.502,65.3393 696.5,88.5C 696.5,88.8333 696.5,89.1667 696.5,89.5C 695.504,89.5858 694.671,89.2524 694,88.5C 693.5,64.8357 693.333,41.169 693.5,17.5C 703.192,18.7306 712.192,21.7306 720.5,26.5 Z"/></g>
<g><path style="opacity:0.596" fill="#ffe0be" d="M 633.5,19.5 C 634.738,21.2143 635.405,23.2143 635.5,25.5C 633.926,23.8984 633.259,21.8984 633.5,19.5 Z"/></g>
<g><path style="opacity:0.027" fill="#fef6ed" d="M 99.5,24.5 C 98.0697,25.5375 96.403,26.2041 94.5,26.5C 95.6354,24.7868 97.302,24.1201 99.5,24.5 Z"/></g>
<g><path style="opacity:0.6" fill="#fdd6aa" d="M 93.5,26.5 C 88.929,29.2532 83.929,31.2532 78.5,32.5C 78.5,32.1667 78.5,31.8333 78.5,31.5C 83.4018,29.5497 88.4018,27.883 93.5,26.5 Z"/></g>
<g><path style="opacity:0.514" fill="#fedcb6" d="M 173.5,17.5 C 166.561,23.1013 159.894,29.1013 153.5,35.5C 158.598,27.7346 165.264,21.7346 173.5,17.5 Z"/></g>
<g><path style="opacity:0.184" fill="#fed7ab" d="M 720.5,26.5 C 727.256,28.1892 733.923,30.1892 740.5,32.5C 740.833,33.1667 741.167,33.8333 741.5,34.5C 734.079,32.5874 727.079,29.9207 720.5,26.5 Z"/></g>
<g><path style="opacity:0.137" fill="#fef1e1" d="M 740.5,32.5 C 744.739,33.7958 748.739,35.4625 752.5,37.5C 748.777,36.7033 745.11,35.7033 741.5,34.5C 741.167,33.8333 740.833,33.1667 740.5,32.5 Z"/></g>
<g><path style="opacity:0.075" fill="#fef2e3" d="M 78.5,31.5 C 78.5,31.8333 78.5,32.1667 78.5,32.5C 73.2987,34.567 67.9654,36.2336 62.5,37.5C 67.5372,34.929 72.8706,32.929 78.5,31.5 Z"/></g>
<g><path style="opacity:0.275" fill="#fee6ca" d="M 635.5,26.5 C 636.117,26.6107 636.617,26.944 637,27.5C 638.413,33.23 639.913,38.8967 641.5,44.5C 638.595,38.9126 636.595,32.9126 635.5,26.5 Z"/></g>
<g><path style="opacity:0.796" fill="#fed2a0" d="M 752.5,37.5 C 757.838,39.1675 763.171,40.8341 768.5,42.5C 768.833,43.1667 769.167,43.8333 769.5,44.5C 764.481,42.6151 759.314,40.9484 754,39.5C 752.97,39.1639 752.47,38.4972 752.5,37.5 Z"/></g>
<g><path style="opacity:0.427" fill="#fed7ac" d="M 62.5,37.5 C 58.043,40.5467 53.043,42.5467 47.5,43.5C 47.5,43.1667 47.5,42.8333 47.5,42.5C 52.3292,40.5993 57.3292,38.9326 62.5,37.5 Z"/></g>
<g><path style="opacity:0.18" fill="#feebd6" d="M 153.5,35.5 C 152.529,37.4832 151.529,39.4832 150.5,41.5C 149.833,41.8333 149.167,42.1667 148.5,42.5C 149.01,39.3257 150.677,36.9923 153.5,35.5 Z"/></g>
<g><path style="opacity:0.204" fill="#feecd7" d="M 768.5,42.5 C 773.524,43.9429 778.191,45.9429 782.5,48.5C 778.167,47.1667 773.833,45.8333 769.5,44.5C 769.167,43.8333 768.833,43.1667 768.5,42.5 Z"/></g>
<g><path style="opacity:0.035" fill="#fef0e0" d="M 47.5,42.5 C 47.5,42.8333 47.5,43.1667 47.5,43.5C 42.2987,45.567 36.9654,47.2336 31.5,48.5C 36.5161,45.9025 41.8495,43.9025 47.5,42.5 Z"/></g>
<g><path style="opacity:0.769" fill="#fecb92" d="M 150.5,41.5 C 149.864,43.7946 148.531,45.4613 146.5,46.5C 146.66,44.847 147.326,43.5137 148.5,42.5C 149.167,42.1667 149.833,41.8333 150.5,41.5 Z"/></g>
<g><path style="opacity:0.792" fill="#ffd2a2" d="M 31.5,48.5 C 30.3646,50.2132 28.698,50.8799 26.5,50.5C 27.7804,49.0687 29.4471,48.4021 31.5,48.5 Z"/></g>
<g><path style="opacity:0.011" fill="#fefcf8" d="M 434.5,49.5 C 432.5,49.5 430.5,49.5 428.5,49.5C 428.5,58.5 428.5,67.5 428.5,76.5C 428.167,76.5 427.833,76.5 427.5,76.5C 427.5,67.1667 427.5,57.8333 427.5,48.5C 430.059,48.1984 432.393,48.5318 434.5,49.5 Z"/></g>
<g><path style="opacity:0.173" fill="#fee9d1" d="M 434.5,49.5 C 437.91,49.4571 441.243,49.9571 444.5,51C 445.942,51.3768 446.942,52.2101 447.5,53.5C 443.078,52.1349 438.745,50.8015 434.5,49.5 Z"/></g>
<g><path style="opacity:0.753" fill="#fed09d" d="M 786.5,49.5 C 789.785,49.9281 792.785,50.9281 795.5,52.5C 795.5,52.8333 795.5,53.1667 795.5,53.5C 791.979,52.9009 788.979,51.5675 786.5,49.5 Z"/></g>
<g><path style="opacity:0.263" fill="#fddcb6" d="M 254.5,53.5 C 248.38,53.2681 242.38,53.9348 236.5,55.5C 237.589,53.8829 239.256,53.0496 241.5,53C 246.02,52.1864 250.354,52.353 254.5,53.5 Z"/></g>
<g><path style="opacity:0.141" fill="#ffe7cc" d="M 641.5,44.5 C 644.27,50.4822 646.27,56.8156 647.5,63.5C 644.321,57.6259 642.321,51.2926 641.5,44.5 Z"/></g>
<g><path style="opacity:0.718" fill="#fed5a7" d="M 447.5,53.5 C 450.393,53.0311 452.393,54.0311 453.5,56.5C 451.181,56.0075 449.181,55.0075 447.5,53.5 Z"/></g>
<g><path style="opacity:0.118" fill="#fee8d0" d="M 795.5,53.5 C 795.5,53.1667 795.5,52.8333 795.5,52.5C 800.463,53.9735 805.463,55.4735 810.5,57C 811.942,57.3768 812.942,58.2101 813.5,59.5C 813.167,59.5 812.833,59.5 812.5,59.5C 806.833,57.5 801.167,55.5 795.5,53.5 Z"/></g>
<g><path style="opacity:0.702" fill="#fed2a1" d="M 258.5,54.5 C 260.698,54.1201 262.365,54.7868 263.5,56.5C 261.597,56.2041 259.93,55.5375 258.5,54.5 Z"/></g>
<g><path style="opacity:0.075" fill="#fee4c5" d="M 523.5,26.5 C 519.645,41.8447 514.978,56.8447 509.5,71.5C 512.486,58.7068 515.986,46.0401 520,33.5C 521.213,31.0748 522.379,28.7415 523.5,26.5 Z"/></g>
<g><path style="opacity:0.169" fill="#fee7cc" d="M 583.5,61.5 C 583.5,62.8333 583.5,64.1667 583.5,65.5C 581.571,61.4249 580.071,57.0916 579,52.5C 578.802,54.3817 578.302,56.0484 577.5,57.5C 577.336,54.8127 577.503,52.146 578,49.5C 578.308,48.6919 578.808,48.0253 579.5,47.5C 581.17,52.1957 582.503,56.8624 583.5,61.5 Z"/></g>
<g><path style="opacity:0.494" fill="#fee0be" d="M 146.5,46.5 C 144.944,52.4283 142.944,58.0949 140.5,63.5C 141.147,57.2369 143.147,51.5702 146.5,46.5 Z"/></g>
<g><path style="opacity:0.014" fill="#fff0e0" d="M 236.5,55.5 C 235.22,56.9313 233.553,57.5979 231.5,57.5C 232.78,56.0687 234.447,55.4021 236.5,55.5 Z"/></g>
<g><path style="opacity:0.075" fill="#fef3e5" d="M 263.5,56.5 C 265.027,56.427 266.027,57.0937 266.5,58.5C 264.973,58.573 263.973,57.9063 263.5,56.5 Z"/></g>
<g><path style="opacity:0.051" fill="#ffe7ce" d="M 347.5,56.5 C 347.833,56.5 348.167,56.5 348.5,56.5C 349.5,56.5 350.5,56.5 351.5,56.5C 351.5,79.1667 351.5,101.833 351.5,124.5C 349.097,124.448 346.764,124.781 344.5,125.5C 343.833,125.5 343.167,125.5 342.5,125.5C 344.438,123.837 346.772,123.171 349.5,123.5C 350.139,100.936 349.473,78.6028 347.5,56.5 Z"/></g>
<g><path style="opacity:0.188" fill="#feedd9" d="M 266.5,58.5 C 270.413,59.4499 273.08,61.7833 274.5,65.5C 271.557,63.5619 268.89,61.2286 266.5,58.5 Z"/></g>
<g><path style="opacity:0.047" fill="#feeedd" d="M 455.5,57.5 C 457.772,58.4411 459.772,59.7745 461.5,61.5C 461.5,61.8333 461.5,62.1667 461.5,62.5C 458.865,61.5265 456.865,59.8598 455.5,57.5 Z"/></g>
<g><path style="opacity:0.302" fill="#fde4c7" d="M 26.5,50.5 C 18.7332,53.4117 10.8999,56.4117 3,59.5C 2.33333,84.8333 2.33333,110.167 3,135.5C 8.51699,137.318 13.6837,139.651 18.5,142.5C 12.8274,140.998 7.3274,138.998 2,136.5C 1.33333,110.5 1.33333,84.5 2,58.5C 9.86213,54.9349 18.0288,52.2682 26.5,50.5 Z"/></g>
<g><path style="opacity:0.365" fill="#fee5c7" d="M 812.5,59.5 C 812.833,59.5 813.167,59.5 813.5,59.5C 814.816,85.4579 814.816,111.458 813.5,137.5C 806.834,139.5 800.167,141.5 793.5,143.5C 793.47,142.503 793.97,141.836 795,141.5C 800.77,139.688 806.437,137.688 812,135.5C 812.5,110.169 812.667,84.8355 812.5,59.5 Z"/></g>
<g><path style="opacity:0.923" fill="#f8a441" d="M 312.5,17.5 C 313.497,33.9916 313.83,50.6583 313.5,67.5C 301.322,67.8284 289.322,67.4951 277.5,66.5C 289.167,66.5 300.833,66.5 312.5,66.5C 312.5,50.1667 312.5,33.8333 312.5,17.5 Z"/></g>
<g><path style="opacity:0.456" fill="#fcd2a1" d="M 274.5,65.5 C 275.609,65.5569 276.609,65.8902 277.5,66.5C 289.322,67.4951 301.322,67.8284 313.5,67.5C 301.34,68.6599 289.007,68.8265 276.5,68C 275.619,67.2917 274.953,66.4584 274.5,65.5 Z"/></g>
<g><path style="opacity:0.706" fill="#fab666" d="M 583.5,61.5 C 584.407,63.6568 585.073,65.9902 585.5,68.5C 584.833,68.1667 584.167,67.8333 583.5,67.5C 583.5,66.8333 583.5,66.1667 583.5,65.5C 583.5,64.1667 583.5,62.8333 583.5,61.5 Z"/></g>
<g><path style="opacity:0.567" fill="#fccc93" d="M 452.5,109.5 C 454.5,109.5 456.5,109.5 458.5,109.5C 458.5,96.8333 458.5,84.1667 458.5,71.5C 455.482,71.7038 452.482,72.0371 449.5,72.5C 452.507,70.8255 455.84,70.1588 459.5,70.5C 459.624,83.7326 459.624,97.0659 459.5,110.5C 456.941,110.802 454.607,110.468 452.5,109.5 Z"/></g>
<g><path style="opacity:0.373" fill="#fedfbd" d="M 447.5,72.5 C 441.64,74.1643 435.64,75.831 429.5,77.5C 428.584,77.4573 427.917,77.1239 427.5,76.5C 427.833,76.5 428.167,76.5 428.5,76.5C 434.648,74.4186 440.981,73.0853 447.5,72.5 Z"/></g>
<g><path style="opacity:0.153" fill="#fee8cf" d="M 648.5,67.5 C 651.08,72.4685 652.747,77.8018 653.5,83.5C 651.231,78.4467 649.565,73.1134 648.5,67.5 Z"/></g>
<g><path style="opacity:0.142" fill="#fef0df" d="M 140.5,64.5 C 137.86,80.1836 137.86,95.8503 140.5,111.5C 139.883,111.389 139.383,111.056 139,110.5C 137.263,97.186 137.096,83.8527 138.5,70.5C 138.361,68.1175 139.028,66.1175 140.5,64.5 Z"/></g>
<g><path style="opacity:0.196" fill="#fee6cb" d="M 509.5,71.5 C 507.942,79.1703 505.609,86.5036 502.5,93.5C 503.481,87.3867 504.981,81.3867 507,75.5C 507.2,73.6803 508.034,72.347 509.5,71.5 Z"/></g>
<g><path style="opacity:0.455" fill="#ffe3c5" d="M 577.5,57.5 C 577.663,59.8568 577.497,62.1902 577,64.5C 573.945,75.5584 571.111,86.5584 568.5,97.5C 570.22,83.6918 573.22,70.3584 577.5,57.5 Z"/></g>
<g><path style="opacity:0.145" fill="#fee8cf" d="M 583.5,67.5 C 584.167,67.8333 584.833,68.1667 585.5,68.5C 587.039,77.5262 588.705,86.5262 590.5,95.5C 587.169,86.5379 584.835,77.2045 583.5,67.5 Z"/></g>
<g><path style="opacity:0.27" fill="#fee3c4" d="M 231.5,57.5 C 216.339,70.3768 212.005,86.3768 218.5,105.5C 217.21,104.942 216.377,103.942 216,102.5C 214.077,93.4853 214.077,84.4853 216,75.5C 218.623,67.2189 223.79,61.2189 231.5,57.5 Z"/></g>
<g><path style="opacity:0.62" fill="#fdd2a2" d="M 653.5,83.5 C 654.924,85.5145 655.59,87.8478 655.5,90.5C 654.076,88.4855 653.41,86.1522 653.5,83.5 Z"/></g>
<g><path style="opacity:0.914" fill="#fcb667" d="M 116.5,89.5 C 115.432,90.4345 114.099,90.7678 112.5,90.5C 111.391,90.5569 110.391,90.8902 109.5,91.5C 111.279,89.6565 113.612,88.9898 116.5,89.5 Z"/></g>
<g><path style="opacity:0.655" fill="#fcc789" d="M 696.5,89.5 C 696.5,89.1667 696.5,88.8333 696.5,88.5C 698.898,88.2594 700.898,88.9261 702.5,90.5C 700.435,90.4828 698.435,90.1495 696.5,89.5 Z"/></g>
<g><path style="opacity:0.09" fill="#fee8cf" d="M 702.5,90.5 C 710.773,92.2312 718.773,94.5646 726.5,97.5C 718.046,96.3446 710.046,94.0113 702.5,90.5 Z"/></g>
<g><path style="opacity:0.098" fill="#fee5c8" d="M 655.5,90.5 C 658.558,95.6948 660.558,101.362 661.5,107.5C 661.167,107.5 660.833,107.5 660.5,107.5C 658.63,101.891 656.963,96.2239 655.5,90.5 Z"/></g>
<g><path style="opacity:0.086" fill="#ffe6cc" d="M 112.5,90.5 C 112.389,91.1174 112.056,91.6174 111.5,92C 100.261,95.2803 88.9281,98.1136 77.5,100.5C 80.024,99.2601 82.6907,98.0934 85.5,97C 93.4283,94.8702 101.428,93.0368 109.5,91.5C 110.391,90.8902 111.391,90.5569 112.5,90.5 Z"/></g>
<g><path style="opacity:0.075" fill="#fee7cc" d="M 502.5,94.5 C 501.004,100.789 499.004,106.789 496.5,112.5C 497.139,105.915 499.139,99.9146 502.5,94.5 Z"/></g>
<g><path style="opacity:0.01" fill="#ffefde" d="M 726.5,97.5 C 727.833,97.5 729.167,97.5 730.5,97.5C 731.167,98.1667 731.833,98.8333 732.5,99.5C 730.102,99.7406 728.102,99.0739 726.5,97.5 Z"/></g>
<g><path style="opacity:0.843" fill="#fcbd75" d="M 730.5,97.5 C 733.491,97.1663 735.824,98.1663 737.5,100.5C 735.708,100.634 734.042,100.301 732.5,99.5C 731.833,98.8333 731.167,98.1667 730.5,97.5 Z"/></g>
<g><path style="opacity:0.012" fill="#fff3e7" d="M 452.5,109.5 C 444.525,108.405 436.691,106.739 429,104.5C 428.5,110.825 428.334,117.158 428.5,123.5C 429.791,123.263 430.791,123.596 431.5,124.5C 430.167,124.5 428.833,124.5 427.5,124.5C 427.5,117.5 427.5,110.5 427.5,103.5C 436.097,104.979 444.431,106.979 452.5,109.5 Z"/></g>
<g><path style="opacity:0.427" fill="#fedfbc" d="M 73.5,101.5 C 69.735,103.289 65.735,104.789 61.5,106C 70.8648,108.084 79.8648,110.917 88.5,114.5C 77.9603,112.615 67.627,109.948 57.5,106.5C 58.3805,105.029 59.7139,104.196 61.5,104C 65.514,103.163 69.514,102.329 73.5,101.5 Z"/></g>
<g><path style="opacity:0.366" fill="#fddab2" d="M 590.5,97.5 C 591.117,97.6107 591.617,97.944 592,98.5C 592.826,101.793 593.326,105.126 593.5,108.5C 584.167,108.5 574.833,108.5 565.5,108.5C 565.171,105.772 565.837,103.438 567.5,101.5C 567.643,103.262 567.309,104.929 566.5,106.5C 574.807,107.498 583.14,107.831 591.5,107.5C 591.384,104.14 591.051,100.807 590.5,97.5 Z"/></g>
<g><path style="opacity:0.294" fill="#fee8d0" d="M 741.5,101.5 C 745.855,102.339 750.189,103.339 754.5,104.5C 756.569,104.824 756.902,105.658 755.5,107C 746.246,109.794 736.912,112.294 727.5,114.5C 727.611,113.883 727.944,113.383 728.5,113C 736.849,110.661 745.182,108.327 753.5,106C 749.265,104.789 745.265,103.289 741.5,101.5 Z"/></g>
<g><path style="opacity:0.133" fill="#fee8ce" d="M 218.5,106.5 C 221.156,109.794 223.822,113.127 226.5,116.5C 222.027,114.686 219.36,111.353 218.5,106.5 Z"/></g>
<g><path style="opacity:0.757" fill="#fcc484" d="M 660.5,107.5 C 660.833,107.5 661.167,107.5 661.5,107.5C 661.833,108.833 662.167,110.167 662.5,111.5C 662.5,112.167 662.5,112.833 662.5,113.5C 660.926,111.898 660.259,109.898 660.5,107.5 Z"/></g>
<g><path style="opacity:0.243" fill="#fef0df" d="M 313.5,114.5 C 312.167,114.5 310.833,114.5 309.5,114.5C 311.032,112.219 312.366,112.219 313.5,114.5 Z"/></g>
<g><path style="opacity:0.027" fill="#fffbf8" d="M 313.5,114.5 C 314.166,122.993 314.5,131.66 314.5,140.5C 314.498,149.527 313.831,158.193 312.5,166.5C 313.485,149.244 313.819,131.91 313.5,114.5 Z"/></g>
<g><path style="opacity:0.624" fill="#feddb7" d="M 725.5,114.5 C 722.548,116.41 719.214,117.41 715.5,117.5C 718.55,115.899 721.884,114.899 725.5,114.5 Z"/></g>
<g><path style="opacity:0.624" fill="#fed8ae" d="M 309.5,114.5 C 305.837,116.416 301.837,117.416 297.5,117.5C 301.239,115.898 305.239,114.898 309.5,114.5 Z"/></g>
<g><path style="opacity:0.529" fill="#ffe3c5" d="M 496.5,112.5 C 496.67,113.822 496.337,114.989 495.5,116C 493.323,117.202 490.989,117.702 488.5,117.5C 491.799,116.85 494.465,115.184 496.5,112.5 Z"/></g>
<g><path style="opacity:0.502" fill="#fdd9af" d="M 487.5,117.5 C 485.786,118.738 483.786,119.405 481.5,119.5C 481.5,119.167 481.5,118.833 481.5,118.5C 483.379,117.659 485.379,117.325 487.5,117.5 Z"/></g>
<g><path style="opacity:0.435" fill="#fdd4a6" d="M 93.5,115.5 C 102.838,117.413 111.838,120.08 120.5,123.5C 120.83,141.341 120.497,159.008 119.5,176.5C 119.5,158.833 119.5,141.167 119.5,123.5C 113.121,122.155 106.788,120.655 100.5,119C 97.9309,118.102 95.5976,116.935 93.5,115.5 Z"/></g>
<g><path style="opacity:0.01" fill="#fef5ea" d="M 481.5,118.5 C 481.5,118.833 481.5,119.167 481.5,119.5C 481.5,137.833 481.5,156.167 481.5,174.5C 481.5,174.833 481.5,175.167 481.5,175.5C 480.883,175.389 480.383,175.056 480,174.5C 479.333,156.167 479.333,137.833 480,119.5C 480.383,118.944 480.883,118.611 481.5,118.5 Z"/></g>
<g><path style="opacity:0.302" fill="#fde5cb" d="M 662.5,111.5 C 663.249,112.531 663.915,113.698 664.5,115C 668.616,116.291 672.782,117.458 677,118.5C 677.945,118.905 678.612,119.572 679,120.5C 679.667,138.5 679.667,156.5 679,174.5C 678.617,175.056 678.117,175.389 677.5,175.5C 677.5,175.167 677.5,174.833 677.5,174.5C 677.5,156.167 677.5,137.833 677.5,119.5C 673.109,118.992 668.775,118.158 664.5,117C 663.177,116.184 662.511,115.017 662.5,113.5C 662.5,112.833 662.5,112.167 662.5,111.5 Z"/></g>
<g><path style="opacity:0.294" fill="#fee7cd" d="M 140.5,113.5 C 143.091,118.468 145.091,123.802 146.5,129.5C 143.148,124.79 141.148,119.457 140.5,113.5 Z"/></g>
<g><path style="opacity:0.08" fill="#fee9d2" d="M 226.5,116.5 C 234.856,121.059 243.856,123.392 253.5,123.5C 268.229,121.967 282.896,119.967 297.5,117.5C 291.767,119.5 285.767,121 279.5,122C 264.467,124.982 249.467,124.982 234.5,122C 231.177,120.861 228.51,119.027 226.5,116.5 Z"/></g>
<g><path style="opacity:0.099" fill="#fef0e0" d="M 120.5,123.5 C 121.497,141.326 121.83,159.326 121.5,177.5C 119.265,177.795 117.265,177.461 115.5,176.5C 116.833,176.5 118.167,176.5 119.5,176.5C 120.497,159.008 120.83,141.341 120.5,123.5 Z"/></g>
<g><path style="opacity:0.112" fill="#fee5c9" d="M 715.5,117.5 C 709.013,119.793 702.346,121.793 695.5,123.5C 695.5,141.167 695.5,158.833 695.5,176.5C 697.5,176.167 699.5,175.833 701.5,175.5C 701.389,176.117 701.056,176.617 700.5,177C 698.19,177.497 695.857,177.663 693.5,177.5C 693.333,159.497 693.5,141.497 694,123.5C 700.864,120.492 708.031,118.492 715.5,117.5 Z"/></g>
<g><path style="opacity:0.114" fill="#feefdc" d="M 435.5,125.5 C 438.272,125.22 440.772,125.887 443,127.5C 443.167,135.5 443.333,143.5 443.5,151.5C 443.498,159.862 442.831,167.862 441.5,175.5C 441.5,175.167 441.5,174.833 441.5,174.5C 442.661,159.339 442.828,144.006 442,128.5C 439.706,127.578 437.539,126.578 435.5,125.5 Z"/></g>
<g><path style="opacity:0.353" fill="#fee6ca" d="M 146.5,129.5 C 149.335,133.164 151.668,137.164 153.5,141.5C 149.689,138.44 147.355,134.44 146.5,129.5 Z"/></g>
<g><path style="opacity:0.651" fill="#fed9af" d="M 19.5,142.5 C 21.698,142.12 23.3646,142.787 24.5,144.5C 22.597,144.204 20.9303,143.537 19.5,142.5 Z"/></g>
<g><path style="opacity:0.216" fill="#fee5c9" d="M 153.5,141.5 C 158.089,146.427 162.756,151.427 167.5,156.5C 161.472,152.804 156.805,147.804 153.5,141.5 Z"/></g>
<g><path style="opacity:0.063" fill="#ffe5c8" d="M 609.5,171.5 C 609.433,172.959 609.766,174.292 610.5,175.5C 609.414,175.38 608.747,174.713 608.5,173.5C 606.671,165.185 605.004,156.852 603.5,148.5C 587.83,148.333 572.163,148.5 556.5,149C 555.956,149.717 555.289,150.217 554.5,150.5C 554.33,149.178 554.663,148.011 555.5,147C 571.5,146.333 587.5,146.333 603.5,147C 606.096,154.971 608.096,163.137 609.5,171.5 Z"/></g>
<g><path style="opacity:0.129" fill="#fee5ca" d="M 789.5,144.5 C 780.598,148.802 771.265,152.136 761.5,154.5C 770.357,150.211 779.69,146.878 789.5,144.5 Z"/></g>
<g><path style="opacity:0.498" fill="#fedfbc" d="M 25.5,144.5 C 35.5517,147.085 45.2184,150.419 54.5,154.5C 50.7783,153.983 47.1117,153.15 43.5,152C 37.2081,149.965 31.2081,147.465 25.5,144.5 Z"/></g>
<g><path style="opacity:0.031" fill="#feeedc" d="M 54.5,154.5 C 56.403,154.796 58.0697,155.463 59.5,156.5C 57.302,156.88 55.6354,156.213 54.5,154.5 Z"/></g>
<g><path style="opacity:0.008" fill="#fff0e1" d="M 761.5,154.5 C 759.898,156.074 757.898,156.741 755.5,156.5C 757.214,155.262 759.214,154.595 761.5,154.5 Z"/></g>
<g><path style="opacity:0.741" fill="#ffd9b0" d="M 59.5,156.5 C 61.698,156.12 63.3646,156.787 64.5,158.5C 62.4471,158.598 60.7804,157.931 59.5,156.5 Z"/></g>
<g><path style="opacity:0.145" fill="#fee6cb" d="M 64.5,158.5 C 69.864,159.363 74.864,161.029 79.5,163.5C 74.1459,162.644 69.1459,160.977 64.5,158.5 Z"/></g>
<g><path style="opacity:0.129" fill="#fee2c4" d="M 167.5,156.5 C 172.874,159.849 178.208,163.183 183.5,166.5C 177.182,164.678 171.849,161.344 167.5,156.5 Z"/></g>
<g><path style="opacity:0.263" fill="#fee1c0" d="M 553.5,155.5 C 553.087,162.464 551.754,169.13 549.5,175.5C 549.5,174.833 549.5,174.167 549.5,173.5C 549.777,167.129 551.11,161.129 553.5,155.5 Z"/></g>
<g><path style="opacity:0.957" fill="#fdc383" d="M 79.5,163.5 C 83.8246,163.349 87.4913,164.682 90.5,167.5C 86.4632,166.935 82.7966,165.601 79.5,163.5 Z"/></g>
<g><path style="opacity:0.122" fill="#fee5c8" d="M 755.5,156.5 C 755.389,157.117 755.056,157.617 754.5,158C 746.58,160.795 738.58,163.295 730.5,165.5C 738.356,161.545 746.689,158.545 755.5,156.5 Z"/></g>
<g><path style="opacity:0.09" fill="#fef0e0" d="M 90.5,167.5 C 94.5368,168.065 98.2034,169.399 101.5,171.5C 97.4632,170.935 93.7966,169.601 90.5,167.5 Z"/></g>
<g><path style="opacity:0.039" fill="#feebd5" d="M 185.5,167.5 C 191.35,169.272 197.017,171.272 202.5,173.5C 196.245,172.859 190.578,170.859 185.5,167.5 Z"/></g>
<g><path style="opacity:0.137" fill="#feead3" d="M 307.5,168.5 C 299.6,171.752 291.267,173.752 282.5,174.5C 282.5,174.167 282.5,173.833 282.5,173.5C 290.794,171.624 299.127,169.957 307.5,168.5 Z"/></g>
<g><path style="opacity:0.361" fill="#fde2c2" d="M 101.5,171.5 C 103.898,171.259 105.898,171.926 107.5,173.5C 105.102,173.741 103.102,173.074 101.5,171.5 Z"/></g>
<g><path style="opacity:0.141" fill="#fee7cd" d="M 724.5,167.5 C 717.436,171.514 709.769,174.181 701.5,175.5C 708.792,172.068 716.459,169.401 724.5,167.5 Z"/></g>
<g><path style="opacity:0.573" fill="#fdd8af" d="M 107.5,173.5 C 110.716,173.345 113.383,174.345 115.5,176.5C 112.603,175.871 109.936,174.871 107.5,173.5 Z"/></g>
<g><path style="opacity:0.404" fill="#fee4c7" d="M 202.5,173.5 C 205.545,173.508 208.545,173.841 211.5,174.5C 213.5,175.167 215.5,175.833 217.5,176.5C 212.185,176.492 207.185,175.492 202.5,173.5 Z"/></g>
<g><path style="opacity:0.502" fill="#fccc94" d="M 282.5,173.5 C 282.5,173.833 282.5,174.167 282.5,174.5C 280.5,174.833 278.5,175.167 276.5,175.5C 274.5,175.5 272.5,175.5 270.5,175.5C 274.267,174.205 278.267,173.539 282.5,173.5 Z"/></g>
<g><path style="opacity:0.685" fill="#fecb91" d="M 342.5,125.5 C 343.167,125.5 343.833,125.5 344.5,125.5C 342.107,126.21 339.607,126.877 337,127.5C 336.5,143.163 336.333,158.83 336.5,174.5C 371.5,174.5 406.5,174.5 441.5,174.5C 441.5,174.833 441.5,175.167 441.5,175.5C 406.669,176.664 371.669,176.831 336.5,176C 335.342,159.574 335.176,143.074 336,126.5C 338.041,125.577 340.208,125.244 342.5,125.5 Z"/></g>
<g><path style="opacity:0.683" fill="#fecd97" d="M 549.5,173.5 C 549.5,174.167 549.5,174.833 549.5,175.5C 526.833,176.833 504.167,176.833 481.5,175.5C 481.5,175.167 481.5,174.833 481.5,174.5C 504.242,174.822 526.908,174.489 549.5,173.5 Z"/></g>
<g><path style="opacity:0.69" fill="#fecc94" d="M 609.5,171.5 C 610.478,171.811 611.145,172.478 611.5,173.5C 633.49,174.5 655.49,174.833 677.5,174.5C 677.5,174.833 677.5,175.167 677.5,175.5C 655.167,176.833 632.833,176.833 610.5,175.5C 609.766,174.292 609.433,172.959 609.5,171.5 Z"/></g>
<g><path style="opacity:0.735" fill="#fbbc73" d="M 211.5,174.5 C 225.448,176.088 239.448,176.754 253.5,176.5C 253.5,176.833 253.5,177.167 253.5,177.5C 241.322,177.828 229.322,177.495 217.5,176.5C 215.5,175.833 213.5,175.167 211.5,174.5 Z"/></g>
<g><path style="opacity:0.082" fill="#feecd7" d="M 270.5,175.5 C 272.5,175.5 274.5,175.5 276.5,175.5C 269.056,177.058 261.389,177.724 253.5,177.5C 253.5,177.167 253.5,176.833 253.5,176.5C 259.203,176.625 264.87,176.292 270.5,175.5 Z"/></g>
</svg>
