<?xml version="1.0" encoding="UTF-8"?>
<!DOCTYPE svg PUBLIC "-//W3C//DTD SVG 1.1//EN" "http://www.w3.org/Graphics/SVG/1.1/DTD/svg11.dtd">
<svg xmlns="http://www.w3.org/2000/svg" version="1.1" width="1157px" height="80px" style="shape-rendering:geometricPrecision; text-rendering:geometricPrecision; image-rendering:optimizeQuality; fill-rule:evenodd; clip-rule:evenodd" xmlns:xlink="http://www.w3.org/1999/xlink">
<g><path style="opacity:0.456" fill="#ffe5c8" d="M 76.5,30.5 C 76.1667,30.5 75.8333,30.5 75.5,30.5C 75.6663,23.4921 75.4996,16.4921 75,9.5C 65.5057,5.24919 55.5057,3.24919 45,3.5C 37.0216,3.46914 29.1883,4.46914 21.5,6.5C 22.6808,4.9328 24.3474,4.09946 26.5,4C 43.0842,0.446306 59.4175,1.44631 75.5,7C 76.1258,7.75044 76.6258,8.58377 77,9.5C 77.8213,16.6791 77.6546,23.6791 76.5,30.5 Z"/></g>
<g><path style="opacity:1" fill="#f79521" d="M 75.5,30.5 C 70.1563,30.666 64.8229,30.4994 59.5,30C 53.0244,23.704 46.0244,23.0373 38.5,28C 37.4178,29.3297 36.7512,30.8297 36.5,32.5C 35.1952,34.3972 34.5286,36.7305 34.5,39.5C 34.6667,41.8333 34.8333,44.1667 35,46.5C 35.3826,47.056 35.8826,47.3893 36.5,47.5C 37.2672,50.7347 39.2672,52.9013 42.5,54C 52.69,55.1049 62.69,54.2716 72.5,51.5C 73.5,51.5 74.5,51.5 75.5,51.5C 75.6663,58.5079 75.4996,65.5079 75,72.5C 74.0053,73.0659 73.172,73.7326 72.5,74.5C 60.6011,76.8208 48.6011,77.6541 36.5,77C 32.7808,76.6116 29.1141,75.9449 25.5,75C 22.0574,72.6878 18.3907,70.8545 14.5,69.5C 11.502,66.333 8.66863,62.9997 6,59.5C 4.51949,55.5535 3.35283,51.5535 2.5,47.5C 2.39097,40.8039 2.7243,34.1373 3.5,27.5C 4.30237,24.4262 5.30237,21.4262 6.5,18.5C 10.9475,13.7095 15.9475,9.70954 21.5,6.5C 29.1883,4.46914 37.0216,3.46914 45,3.5C 55.5057,3.24919 65.5057,5.24919 75,9.5C 75.4996,16.4921 75.6663,23.4921 75.5,30.5 Z"/></g>
<g><path style="opacity:0.129" fill="#fee9d2" d="M 21.5,6.5 C 15.9475,9.70954 10.9475,13.7095 6.5,18.5C 9.69958,12.3054 14.6996,8.30536 21.5,6.5 Z"/></g>
<g><path style="opacity:0.31" fill="#fee9d0" d="M 461.5,11.5 C 447.171,8.83365 432.837,8.83365 418.5,11.5C 420.562,10.2237 422.896,9.39034 425.5,9C 435.167,8.33333 444.833,8.33333 454.5,9C 457.104,9.39034 459.438,10.2237 461.5,11.5 Z"/></g>
<g><path style="opacity:0.303" fill="#fee5c9" d="M 675.5,16.5 C 655.579,7.41666 635.579,7.24999 615.5,16C 612.964,18.705 610.297,21.205 607.5,23.5C 608.872,19.9537 611.205,17.1204 614.5,15C 619.624,12.4379 624.957,10.4379 630.5,9C 640.167,8.33333 649.833,8.33333 659.5,9C 665.58,10.21 670.913,12.71 675.5,16.5 Z"/></g>
<g><path style="opacity:0.098" fill="#feead3" d="M 145.5,11.5 C 131.49,8.86147 117.49,8.86147 103.5,11.5C 105.562,10.2237 107.896,9.39034 110.5,9C 120.167,8.33333 129.833,8.33333 139.5,9C 141.852,9.24013 143.852,10.0735 145.5,11.5 Z"/></g>
<g><path style="opacity:1" fill="#f79521" d="M 145.5,11.5 C 152.36,15.0231 158.36,19.6898 163.5,25.5C 164.331,28.659 165.331,31.659 166.5,34.5C 166.74,40.227 166.407,45.8936 165.5,51.5C 165.283,55.9846 163.783,59.9846 161,63.5C 157.181,68.1671 152.681,71.8337 147.5,74.5C 131.338,78.69 115.338,78.3567 99.5,73.5C 91.0956,68.7717 85.7623,61.7717 83.5,52.5C 83.24,45.443 83.5733,38.443 84.5,31.5C 85.1667,29.1667 85.8333,26.8333 86.5,24.5C 89.2505,22.2547 91.9172,19.7547 94.5,17C 97.5964,15.1282 100.596,13.2948 103.5,11.5C 117.49,8.86147 131.49,8.86147 145.5,11.5 Z M 133.5,52.5 C 127.24,56.7897 121.24,56.4564 115.5,51.5C 114.504,46.5374 114.337,41.5374 115,36.5C 118.928,30.9706 124.094,29.4706 130.5,32C 134.08,34.7179 135.746,38.3846 135.5,43C 135.345,46.2923 134.678,49.459 133.5,52.5 Z"/></g>
<g><path style="opacity:0.109" fill="#fef4e9" d="M 173.5,10.5 C 193.329,9.33752 213.329,9.17085 233.5,10C 234.737,10.2321 235.737,10.7321 236.5,11.5C 215.86,10.5465 195.193,10.2131 174.5,10.5C 174.167,10.5 173.833,10.5 173.5,10.5 Z"/></g>
<g><path style="opacity:0.108" fill="#fef4e9" d="M 327.5,10.5 C 327.167,10.5 326.833,10.5 326.5,10.5C 305.833,10.5 285.167,10.5 264.5,10.5C 264.5,16.8333 264.5,23.1667 264.5,29.5C 263.509,23.021 263.176,16.3543 263.5,9.5C 285.007,9.16936 306.34,9.5027 327.5,10.5 Z"/></g>
<g><path style="opacity:1" fill="#f79521" d="M 461.5,11.5 C 461.47,12.4972 461.97,13.1639 463,13.5C 465.677,14.222 468.177,15.222 470.5,16.5C 472.882,19.5483 475.548,22.2149 478.5,24.5C 479.083,27.9466 480.416,30.9466 482.5,33.5C 482.5,39.5 482.5,45.5 482.5,51.5C 482.5,51.8333 482.5,52.1667 482.5,52.5C 480.432,54.9789 479.099,57.9789 478.5,61.5C 472.582,68.809 464.916,73.6424 455.5,76C 441.543,78.4579 427.876,77.6246 414.5,73.5C 413.198,71.1782 411.198,69.8449 408.5,69.5C 404.082,63.9877 400.749,57.9877 398.5,51.5C 398.5,45.5 398.5,39.5 398.5,33.5C 400.447,29.6068 402.447,25.6068 404.5,21.5C 408.912,17.7464 413.578,14.4131 418.5,11.5C 432.837,8.83365 447.171,8.83365 461.5,11.5 Z M 437.5,30.5 C 441.059,30.4081 444.392,31.2415 447.5,33C 450.879,38.8409 451.379,45.0076 449,51.5C 444.747,55.6256 439.913,56.459 434.5,54C 429.848,49.4643 428.348,43.9643 430,37.5C 431.767,34.228 434.267,31.8947 437.5,30.5 Z"/></g>
<g><path style="opacity:0.108" fill="#fef4e9" d="M 488.5,10.5 C 502.99,9.50398 517.657,9.17065 532.5,9.5C 532.83,16.5316 532.497,23.5316 531.5,30.5C 530.264,31.2458 528.93,31.5792 527.5,31.5C 527.5,40.1667 527.5,48.8333 527.5,57.5C 526.507,48.6822 526.173,39.6822 526.5,30.5C 528.117,29.962 529.784,29.6287 531.5,29.5C 531.5,23.1667 531.5,16.8333 531.5,10.5C 517.5,10.5 503.5,10.5 489.5,10.5C 489.167,10.5 488.833,10.5 488.5,10.5 Z"/></g>
<g><path style="opacity:0.109" fill="#fef1e2" d="M 552.5,10.5 C 567.005,9.17394 581.672,9.17394 596.5,10.5C 596.245,16.0875 596.578,21.7541 597.5,27.5C 597.253,28.7133 596.586,29.38 595.5,29.5C 595.5,23.5 595.5,17.5 595.5,11.5C 581.677,10.5042 567.677,10.1709 553.5,10.5C 553.167,10.5 552.833,10.5 552.5,10.5 Z"/></g>
<g><path style="opacity:1" fill="#f79520" d="M 675.5,16.5 C 677.167,18.8333 679.167,20.8333 681.5,22.5C 682.079,25.3311 683.412,27.6644 685.5,29.5C 686.292,35.1302 686.625,40.7969 686.5,46.5C 686.54,49.8806 686.207,53.2139 685.5,56.5C 681.628,63.3773 676.294,69.044 669.5,73.5C 669.158,74.3382 668.492,74.6716 667.5,74.5C 652.171,78.4161 636.838,78.4161 621.5,74.5C 618.138,72.157 614.804,69.8236 611.5,67.5C 610.876,65.246 609.543,63.5794 607.5,62.5C 606.677,60.0128 605.677,57.6794 604.5,55.5C 603.768,48.5244 603.435,41.5244 603.5,34.5C 604.833,30.8333 606.167,27.1667 607.5,23.5C 610.297,21.205 612.964,18.705 615.5,16C 635.579,7.24999 655.579,7.41666 675.5,16.5 Z M 642.5,30.5 C 645.947,30.8143 649.28,31.6476 652.5,33C 656.061,39.4122 656.228,45.9122 653,52.5C 647.034,56.7811 641.367,56.4478 636,51.5C 634,45.8333 634,40.1667 636,34.5C 638.013,32.7518 640.18,31.4185 642.5,30.5 Z"/></g>
<g><path style="opacity:0.108" fill="#feedda" d="M 789.5,29.5 C 786.931,23.3418 784.598,17.0084 782.5,10.5C 769.167,10.5 755.833,10.5 742.5,10.5C 742.05,16.3242 740.384,21.6575 737.5,26.5C 738.985,20.8919 740.318,15.2253 741.5,9.5C 755.504,9.33343 769.504,9.50009 783.5,10C 786.202,16.2747 788.202,22.7747 789.5,29.5 Z"/></g>
<g><path style="opacity:0.109" fill="#ffebd6" d="M 887.5,21.5 C 884.834,20.1579 882.501,18.3245 880.5,16C 877.282,15.0997 874.282,13.933 871.5,12.5C 870.737,11.7321 869.737,11.2321 868.5,11C 848.662,10.1709 828.996,10.3376 809.5,11.5C 809.5,16.8333 809.5,22.1667 809.5,27.5C 811.467,27.2606 813.301,27.5939 815,28.5C 815.5,37.8274 815.666,47.1607 815.5,56.5C 814.5,56.5 813.5,56.5 812.5,56.5C 813.471,47.5839 813.804,38.5839 813.5,29.5C 811.856,29.7135 810.356,29.3802 809,28.5C 808.5,22.1754 808.334,15.8421 808.5,9.5C 828.836,9.33338 849.169,9.50004 869.5,10C 873.5,11.6667 877.5,13.3333 881.5,15C 883.899,16.9802 885.899,19.1469 887.5,21.5 Z"/></g>
<g><path style="opacity:0.11" fill="#fef2e4" d="M 1055.5,29.5 C 1055.82,22.9779 1055.49,16.6446 1054.5,10.5C 1040.5,10.5 1026.5,10.5 1012.5,10.5C 1012.33,16.5092 1012.5,22.5092 1013,28.5C 1014.58,29.8613 1016.42,30.528 1018.5,30.5C 1018.5,30.8333 1018.5,31.1667 1018.5,31.5C 1015.96,31.8957 1013.79,31.229 1012,29.5C 1011.5,22.8417 1011.33,16.175 1011.5,9.5C 1026.5,9.33342 1041.5,9.50008 1056.5,10C 1057.64,16.0844 1057.81,22.2511 1057,28.5C 1056.62,29.056 1056.12,29.3893 1055.5,29.5 Z"/></g>
<g><path style="opacity:0.108" fill="#fdf1e2" d="M 1103.5,12.5 C 1102.83,12.1667 1102.17,11.8333 1101.5,11.5C 1089.34,10.5048 1077.01,10.1714 1064.5,10.5C 1064.5,16.8333 1064.5,23.1667 1064.5,29.5C 1063.51,23.021 1063.18,16.3543 1063.5,9.5C 1076.5,9.33344 1089.5,9.50011 1102.5,10C 1103.25,10.6708 1103.59,11.5041 1103.5,12.5 Z"/></g>
<g><path style="opacity:0.107" fill="#fef2e3" d="M 1149.5,29.5 C 1149.5,23.1667 1149.5,16.8333 1149.5,10.5C 1139.5,10.5 1129.5,10.5 1119.5,10.5C 1118.51,16.6446 1118.18,22.9779 1118.5,29.5C 1117.51,23.021 1117.18,16.3543 1117.5,9.5C 1128.5,9.5 1139.5,9.5 1150.5,9.5C 1150.82,16.3543 1150.49,23.021 1149.5,29.5 Z"/></g>
<g><path style="opacity:0.936" fill="#f8a139" d="M 174.5,11.5 C 174.5,11.1667 174.5,10.8333 174.5,10.5C 195.193,10.2131 215.86,10.5465 236.5,11.5C 236.5,11.8333 236.5,12.1667 236.5,12.5C 215.856,11.5589 195.189,11.2256 174.5,11.5 Z"/></g>
<g><path style="opacity:0.932" fill="#f9aa4d" d="M 326.5,10.5 C 326.5,10.8333 326.5,11.1667 326.5,11.5C 306.167,11.5 285.833,11.5 265.5,11.5C 265.5,17.1667 265.5,22.8333 265.5,28.5C 267.5,28.8333 269.5,29.1667 271.5,29.5C 271.827,38.6822 271.493,47.6822 270.5,56.5C 270.5,47.8333 270.5,39.1667 270.5,30.5C 268.5,30.1667 266.5,29.8333 264.5,29.5C 264.5,23.1667 264.5,16.8333 264.5,10.5C 285.167,10.5 305.833,10.5 326.5,10.5 Z"/></g>
<g><path style="opacity:0.929" fill="#f8a23b" d="M 334.5,10.5 C 353.833,10.5 373.167,10.5 392.5,10.5C 392.5,10.8333 392.5,11.1667 392.5,11.5C 373.5,11.5 354.5,11.5 335.5,11.5C 335.5,17.1667 335.5,22.8333 335.5,28.5C 334.51,22.69 334.177,16.69 334.5,10.5 Z"/></g>
<g><path style="opacity:0.932" fill="#f8a037" d="M 553.5,10.5 C 567.677,10.1709 581.677,10.5042 595.5,11.5C 581.833,11.5 568.167,11.5 554.5,11.5C 554.5,17.1667 554.5,22.8333 554.5,28.5C 556.553,28.4021 558.22,29.0687 559.5,30.5C 557.435,30.4828 555.435,30.1495 553.5,29.5C 553.5,23.1667 553.5,16.8333 553.5,10.5 Z"/></g>
<g><path style="opacity:0.928" fill="#f8a13a" d="M 809.5,11.5 C 828.996,10.3376 848.662,10.1709 868.5,11C 869.737,11.2321 870.737,11.7321 871.5,12.5C 850.86,11.5465 830.193,11.2131 809.5,11.5 Z"/></g>
<g><path style="opacity:0.27" fill="#feecd8" d="M 940.5,14.5 C 938.974,13.8953 937.974,12.7286 937.5,11C 925.171,10.5001 912.838,10.3335 900.5,10.5C 900.177,16.69 900.51,22.69 901.5,28.5C 903.072,29.6873 904.739,30.6873 906.5,31.5C 903.956,31.8957 901.789,31.229 900,29.5C 899.5,22.8417 899.334,16.175 899.5,9.5C 912.504,9.33344 925.504,9.50011 938.5,10C 939.582,11.3297 940.249,12.8297 940.5,14.5 Z"/></g>
<g><path style="opacity:0.93" fill="#f8a23a" d="M 1101.5,11.5 C 1089.5,11.5 1077.5,11.5 1065.5,11.5C 1065.5,17.1667 1065.5,22.8333 1065.5,28.5C 1067.38,28.2291 1068.71,28.8958 1069.5,30.5C 1067.88,29.962 1066.22,29.6287 1064.5,29.5C 1064.5,23.1667 1064.5,16.8333 1064.5,10.5C 1077.01,10.1714 1089.34,10.5048 1101.5,11.5 Z"/></g>
<g><path style="opacity:0.926" fill="#f8a33e" d="M 1119.5,11.5 C 1119.5,11.1667 1119.5,10.8333 1119.5,10.5C 1129.5,10.5 1139.5,10.5 1149.5,10.5C 1149.5,16.8333 1149.5,23.1667 1149.5,29.5C 1148.17,29.5 1146.83,29.5 1145.5,29.5C 1146.21,28.596 1147.21,28.2627 1148.5,28.5C 1148.5,22.8333 1148.5,17.1667 1148.5,11.5C 1138.83,11.5 1129.17,11.5 1119.5,11.5 Z"/></g>
<g><path style="opacity:0.725" fill="#ffce99" d="M 173.5,10.5 C 173.833,10.5 174.167,10.5 174.5,10.5C 174.5,10.8333 174.5,11.1667 174.5,11.5C 174.5,16.8333 174.5,22.1667 174.5,27.5C 174.167,27.5 173.833,27.5 173.5,27.5C 172.167,21.8333 172.167,16.1667 173.5,10.5 Z"/></g>
<g><path style="opacity:1" fill="#f7941e" d="M 174.5,11.5 C 195.189,11.2256 215.856,11.5589 236.5,12.5C 244.047,15.4479 250.38,20.1146 255.5,26.5C 257.284,34.7057 257.95,43.0391 257.5,51.5C 256.593,53.6568 255.927,55.9902 255.5,58.5C 255.5,58.8333 255.5,59.1667 255.5,59.5C 251.742,62.7909 248.075,66.2909 244.5,70C 240.736,70.8523 237.403,72.3523 234.5,74.5C 214.569,76.3657 194.569,77.0323 174.5,76.5C 174.5,70.5 174.5,64.5 174.5,58.5C 175.791,58.7373 176.791,58.404 177.5,57.5C 177.833,57.5 178.167,57.5 178.5,57.5C 179.828,52.8806 180.494,47.8806 180.5,42.5C 180.494,37.1194 179.828,32.1194 178.5,27.5C 177.167,27.5 175.833,27.5 174.5,27.5C 174.5,22.1667 174.5,16.8333 174.5,11.5 Z M 214.5,29.5 C 218.393,29.8406 221.893,31.1739 225,33.5C 226.458,38.0324 226.958,42.5324 226.5,47C 226.027,49.8601 224.694,52.1935 222.5,54C 218.914,55.1076 215.247,55.6076 211.5,55.5C 211.5,47.1667 211.5,38.8333 211.5,30.5C 212.791,30.7373 213.791,30.404 214.5,29.5 Z"/></g>
<g><path style="opacity:1" fill="#f7941f" d="M 326.5,11.5 C 326.5,18.8333 326.5,26.1667 326.5,33.5C 323.43,33.6323 320.43,33.299 317.5,32.5C 316.167,32.1667 314.833,31.8333 313.5,31.5C 312.653,30.0337 311.32,29.2004 309.5,29C 306.633,28.1993 303.966,28.3659 301.5,29.5C 301.5,32.8333 301.5,36.1667 301.5,39.5C 304.373,39.1977 307.039,38.531 309.5,37.5C 311.167,37.5 312.833,37.5 314.5,37.5C 314.5,41.5 314.5,45.5 314.5,49.5C 313.167,49.5 311.833,49.5 310.5,49.5C 307.518,49.0371 304.518,48.7038 301.5,48.5C 301.5,51.5 301.5,54.5 301.5,57.5C 303.415,57.7845 305.081,57.4511 306.5,56.5C 310.319,56.586 313.985,55.9193 317.5,54.5C 320.43,53.701 323.43,53.3677 326.5,53.5C 326.5,61.1667 326.5,68.8333 326.5,76.5C 305.833,76.5 285.167,76.5 264.5,76.5C 264.171,70.4632 264.504,64.4632 265.5,58.5C 266.739,58.0576 267.739,57.3909 268.5,56.5C 269.167,56.5 269.833,56.5 270.5,56.5C 271.493,47.6822 271.827,38.6822 271.5,29.5C 269.5,29.1667 267.5,28.8333 265.5,28.5C 265.5,22.8333 265.5,17.1667 265.5,11.5C 285.833,11.5 306.167,11.5 326.5,11.5 Z"/></g>
<g><path style="opacity:0.665" fill="#ffcc94" d="M 326.5,10.5 C 326.833,10.5 327.167,10.5 327.5,10.5C 328.833,18.5 328.833,26.5 327.5,34.5C 324.5,34.5 321.5,34.5 318.5,34.5C 318.167,33.8333 317.833,33.1667 317.5,32.5C 320.43,33.299 323.43,33.6323 326.5,33.5C 326.5,26.1667 326.5,18.8333 326.5,11.5C 326.5,11.1667 326.5,10.8333 326.5,10.5 Z"/></g>
<g><path style="opacity:0.361" fill="#fcdbb4" d="M 333.5,10.5 C 333.833,10.5 334.167,10.5 334.5,10.5C 334.177,16.69 334.51,22.69 335.5,28.5C 335.5,28.8333 335.5,29.1667 335.5,29.5C 335.167,29.5 334.833,29.5 334.5,29.5C 333.51,23.3554 333.177,17.0221 333.5,10.5 Z"/></g>
<g><path style="opacity:1" fill="#f7941e" d="M 392.5,11.5 C 392.5,18.8333 392.5,26.1667 392.5,33.5C 389.5,33.5 386.5,33.5 383.5,33.5C 379.938,31.0468 375.938,29.7134 371.5,29.5C 371.5,33.1667 371.5,36.8333 371.5,40.5C 375.476,39.7048 379.476,39.0381 383.5,38.5C 383.5,42.8333 383.5,47.1667 383.5,51.5C 382.5,51.5 381.5,51.5 380.5,51.5C 377.482,51.2962 374.482,50.9629 371.5,50.5C 371.5,52.5 371.5,54.5 371.5,56.5C 372.5,56.5 373.5,56.5 374.5,56.5C 376.399,62.8824 377.066,69.5491 376.5,76.5C 362.833,76.5 349.167,76.5 335.5,76.5C 335.5,70.5 335.5,64.5 335.5,58.5C 337.553,58.5979 339.22,57.9313 340.5,56.5C 341.822,47.6582 341.822,38.6582 340.5,29.5C 338.929,28.6906 337.262,28.3573 335.5,28.5C 335.5,22.8333 335.5,17.1667 335.5,11.5C 354.5,11.5 373.5,11.5 392.5,11.5 Z"/></g>
<g><path style="opacity:0.571" fill="#fac17b" d="M 392.5,10.5 C 393.492,18.3159 393.826,26.3159 393.5,34.5C 389.958,34.8128 386.625,34.4794 383.5,33.5C 386.5,33.5 389.5,33.5 392.5,33.5C 392.5,26.1667 392.5,18.8333 392.5,11.5C 392.5,11.1667 392.5,10.8333 392.5,10.5 Z"/></g>
<g><path style="opacity:0.545" fill="#fedbb3" d="M 488.5,10.5 C 488.833,10.5 489.167,10.5 489.5,10.5C 489.5,16.8333 489.5,23.1667 489.5,29.5C 489.167,29.5 488.833,29.5 488.5,29.5C 487.167,23.1667 487.167,16.8333 488.5,10.5 Z"/></g>
<g><path style="opacity:1" fill="#f7951f" d="M 489.5,10.5 C 503.5,10.5 517.5,10.5 531.5,10.5C 531.5,16.8333 531.5,23.1667 531.5,29.5C 529.784,29.6287 528.117,29.962 526.5,30.5C 525.506,39.6517 525.173,48.985 525.5,58.5C 527.415,58.7845 529.081,58.4511 530.5,57.5C 532.996,56.4196 535.33,55.0862 537.5,53.5C 540.5,53.5 543.5,53.5 546.5,53.5C 546.5,61.1667 546.5,68.8333 546.5,76.5C 527.5,76.5 508.5,76.5 489.5,76.5C 489.334,70.4908 489.501,64.4908 490,58.5C 491.302,57.9152 492.469,57.2485 493.5,56.5C 495.47,48.2312 496.136,39.5645 495.5,30.5C 493.435,30.4828 491.435,30.1495 489.5,29.5C 489.5,23.1667 489.5,16.8333 489.5,10.5 Z"/></g>
<g><path style="opacity:0.474" fill="#fedfbc" d="M 552.5,10.5 C 552.833,10.5 553.167,10.5 553.5,10.5C 553.5,16.8333 553.5,23.1667 553.5,29.5C 553.167,29.5 552.833,29.5 552.5,29.5C 551.167,23.1667 551.167,16.8333 552.5,10.5 Z"/></g>
<g><path style="opacity:1" fill="#f7941e" d="M 595.5,11.5 C 595.5,17.5 595.5,23.5 595.5,29.5C 593.533,29.2606 591.699,29.5939 590,30.5C 589.176,39.3433 589.343,48.0099 590.5,56.5C 591.919,57.4511 593.585,57.7845 595.5,57.5C 595.5,63.8333 595.5,70.1667 595.5,76.5C 581.5,76.5 567.5,76.5 553.5,76.5C 553.5,70.1667 553.5,63.8333 553.5,57.5C 554.791,57.7373 555.791,57.404 556.5,56.5C 557.5,56.5 558.5,56.5 559.5,56.5C 559.5,47.8333 559.5,39.1667 559.5,30.5C 558.22,29.0687 556.553,28.4021 554.5,28.5C 554.5,22.8333 554.5,17.1667 554.5,11.5C 568.167,11.5 581.833,11.5 595.5,11.5 Z"/></g>
<g><path style="opacity:1" fill="#f79521" d="M 789.5,29.5 C 789.678,32.2165 790.178,34.8832 791,37.5C 791.2,39.3197 792.034,40.653 793.5,41.5C 793.857,45.263 794.69,48.9296 796,52.5C 797.789,54.229 799.956,54.8957 802.5,54.5C 802.5,61.8333 802.5,69.1667 802.5,76.5C 793.167,76.5 783.833,76.5 774.5,76.5C 774.058,72.8455 773.724,69.1788 773.5,65.5C 766.468,65.1697 759.468,65.503 752.5,66.5C 751.618,69.7906 750.952,73.124 750.5,76.5C 741.5,76.5 732.5,76.5 723.5,76.5C 723.5,69.1667 723.5,61.8333 723.5,54.5C 725.199,54.6602 726.866,54.4935 728.5,54C 729.731,51.834 730.731,49.6674 731.5,47.5C 733.278,42.7285 734.611,37.7285 735.5,32.5C 737.074,30.8984 737.741,28.8984 737.5,26.5C 740.384,21.6575 742.05,16.3242 742.5,10.5C 755.833,10.5 769.167,10.5 782.5,10.5C 784.598,17.0084 786.931,23.3418 789.5,29.5 Z M 763.5,31.5 C 763.629,33.2161 763.962,34.8828 764.5,36.5C 764.767,40.7462 765.767,44.7462 767.5,48.5C 764.02,49.8056 760.687,49.8056 757.5,48.5C 758.117,48.3893 758.617,48.056 759,47.5C 760.148,43.5472 760.982,39.5472 761.5,35.5C 761.5,35.1667 761.5,34.8333 761.5,34.5C 762.167,33.5 762.833,32.5 763.5,31.5 Z"/></g>
<g><path style="opacity:1" fill="#f7941f" d="M 809.5,11.5 C 830.193,11.2131 850.86,11.5465 871.5,12.5C 874.282,13.933 877.282,15.0997 880.5,16C 882.501,18.3245 884.834,20.1579 887.5,21.5C 888.82,24.1401 890.153,26.8068 891.5,29.5C 892.756,38.4921 892.756,47.4921 891.5,56.5C 887.776,63.8905 882.109,69.2238 874.5,72.5C 872.102,72.2594 870.102,72.9261 868.5,74.5C 865.213,75.1614 861.88,75.6614 858.5,76C 842.17,76.4999 825.837,76.6666 809.5,76.5C 809.5,70.1667 809.5,63.8333 809.5,57.5C 810.791,57.7373 811.791,57.404 812.5,56.5C 813.5,56.5 814.5,56.5 815.5,56.5C 815.666,47.1607 815.5,37.8274 815,28.5C 813.301,27.5939 811.467,27.2606 809.5,27.5C 809.5,22.1667 809.5,16.8333 809.5,11.5 Z M 847.5,30.5 C 851.605,30.2338 855.605,30.7338 859.5,32C 860.126,32.7504 860.626,33.5838 861,34.5C 861.667,39.8333 861.667,45.1667 861,50.5C 860.535,51.9308 859.701,53.0975 858.5,54C 854.914,55.1076 851.247,55.6076 847.5,55.5C 847.5,47.1667 847.5,38.8333 847.5,30.5 Z"/></g>
<g><path style="opacity:1" fill="#f7941f" d="M 940.5,14.5 C 941.828,19.1651 944.161,23.1651 947.5,26.5C 949.043,28.9278 950.043,31.5944 950.5,34.5C 954.819,32.2547 957.486,28.588 958.5,23.5C 960.588,21.6644 961.921,19.3311 962.5,16.5C 964.634,15.2965 965.968,13.4632 966.5,11C 978.495,10.5001 990.495,10.3335 1002.5,10.5C 1002.5,16.5 1002.5,22.5 1002.5,28.5C 1000.62,28.2291 999.287,28.8958 998.5,30.5C 997.507,38.9839 997.174,47.6506 997.5,56.5C 999.218,57.224 1001.05,57.8906 1003,58.5C 1003.5,64.4908 1003.67,70.4908 1003.5,76.5C 991.5,76.5 979.5,76.5 967.5,76.5C 967.827,66.3194 967.494,56.3194 966.5,46.5C 965.326,47.5137 964.66,48.847 964.5,50.5C 960.124,55.171 956.457,60.5044 953.5,66.5C 952.675,67.3857 951.675,67.719 950.5,67.5C 947.243,60.0484 943.243,53.0484 938.5,46.5C 938.44,45.9569 938.107,45.6236 937.5,45.5C 936.501,55.8119 936.168,66.1452 936.5,76.5C 924.833,76.5 913.167,76.5 901.5,76.5C 901.5,70.5 901.5,64.5 901.5,58.5C 903.553,58.5979 905.22,57.9313 906.5,56.5C 907.822,47.6582 907.822,38.6582 906.5,29.5C 904.929,28.6906 903.262,28.3573 901.5,28.5C 900.51,22.69 900.177,16.69 900.5,10.5C 912.838,10.3335 925.171,10.5001 937.5,11C 937.974,12.7286 938.974,13.8953 940.5,14.5 Z"/></g>
<g><path style="opacity:0.787" fill="#fab564" d="M 1002.5,10.5 C 1003.49,16.6446 1003.82,22.9779 1003.5,29.5C 1001.78,29.6287 1000.12,29.962 998.5,30.5C 999.287,28.8958 1000.62,28.2291 1002.5,28.5C 1002.5,22.5 1002.5,16.5 1002.5,10.5 Z"/></g>
<g><path style="opacity:0.352" fill="#feead4" d="M 1003.5,29.5 C 1003.82,22.9779 1003.49,16.6446 1002.5,10.5C 990.495,10.3335 978.495,10.5001 966.5,11C 965.968,13.4632 964.634,15.2965 962.5,16.5C 963.086,14.1602 964.086,11.9935 965.5,10C 978.5,9.33333 991.5,9.33333 1004.5,10C 1004.59,15.4616 1004.92,20.9616 1005.5,26.5C 1005.06,27.7387 1004.39,28.7387 1003.5,29.5 Z"/></g>
<g><path style="opacity:1" fill="#f79521" d="M 1054.5,10.5 C 1054.5,16.5 1054.5,22.5 1054.5,28.5C 1052.22,28.0773 1050.55,28.744 1049.5,30.5C 1049.17,39.1922 1049.5,47.8589 1050.5,56.5C 1052.06,57.0736 1053.56,57.7402 1055,58.5C 1055.5,64.4908 1055.67,70.4908 1055.5,76.5C 1041.17,76.5 1026.83,76.5 1012.5,76.5C 1012.33,70.4908 1012.5,64.4908 1013,58.5C 1013.67,57.7476 1014.5,57.4142 1015.5,57.5C 1016.82,57.67 1017.99,57.3366 1019,56.5C 1019.82,47.6567 1019.66,38.9901 1018.5,30.5C 1016.42,30.528 1014.58,29.8613 1013,28.5C 1012.5,22.5092 1012.33,16.5092 1012.5,10.5C 1026.5,10.5 1040.5,10.5 1054.5,10.5 Z"/></g>
<g><path style="opacity:0.747" fill="#f9b664" d="M 1054.5,10.5 C 1055.49,16.6446 1055.82,22.9779 1055.5,29.5C 1053.5,29.8333 1051.5,30.1667 1049.5,30.5C 1050.55,28.744 1052.22,28.0773 1054.5,28.5C 1054.5,22.5 1054.5,16.5 1054.5,10.5 Z"/></g>
<g><path style="opacity:1" fill="#f79520" d="M 1101.5,11.5 C 1102.17,11.8333 1102.83,12.1667 1103.5,12.5C 1103.84,15.1979 1105.18,17.1979 1107.5,18.5C 1108.34,20.8525 1109.67,22.8525 1111.5,24.5C 1113.81,28.795 1116.47,32.795 1119.5,36.5C 1120.5,38.5 1121.5,40.5 1122.5,42.5C 1122.75,43.9221 1123.58,44.9221 1125,45.5C 1125.82,40.3158 1125.65,35.3158 1124.5,30.5C 1123.07,30.5792 1121.74,30.2458 1120.5,29.5C 1119.5,23.5368 1119.17,17.5368 1119.5,11.5C 1129.17,11.5 1138.83,11.5 1148.5,11.5C 1148.5,17.1667 1148.5,22.8333 1148.5,28.5C 1147.21,28.2627 1146.21,28.596 1145.5,29.5C 1144.23,33.9165 1143.56,38.5832 1143.5,43.5C 1143.51,48.2216 1144.17,52.5549 1145.5,56.5C 1146.53,57.2485 1147.7,57.9152 1149,58.5C 1149.5,64.4908 1149.67,70.4908 1149.5,76.5C 1137.16,76.6665 1124.83,76.4999 1112.5,76C 1109.4,70.5806 1105.73,65.7473 1101.5,61.5C 1101.45,59.368 1100.45,58.0347 1098.5,57.5C 1097.73,54.4838 1096.06,52.1505 1093.5,50.5C 1093.5,50.1667 1093.5,49.8333 1093.5,49.5C 1092.74,47.6316 1091.74,45.9649 1090.5,44.5C 1090.44,43.9569 1090.11,43.6236 1089.5,43.5C 1088.19,47.9838 1088.19,52.3171 1089.5,56.5C 1090.17,56.5 1090.83,56.5 1091.5,56.5C 1092.5,57.1667 1093.5,57.8333 1094.5,58.5C 1094.5,64.5 1094.5,70.5 1094.5,76.5C 1084.5,76.5 1074.5,76.5 1064.5,76.5C 1064.5,70.1667 1064.5,63.8333 1064.5,57.5C 1065.79,57.7373 1066.79,57.404 1067.5,56.5C 1068.5,56.5 1069.5,56.5 1070.5,56.5C 1070.83,47.6506 1070.49,38.9839 1069.5,30.5C 1068.71,28.8958 1067.38,28.2291 1065.5,28.5C 1065.5,22.8333 1065.5,17.1667 1065.5,11.5C 1077.5,11.5 1089.5,11.5 1101.5,11.5 Z"/></g>
<g><path style="opacity:0.239" fill="#fee5c9" d="M 418.5,11.5 C 413.578,14.4131 408.912,17.7464 404.5,21.5C 407.723,16.2957 412.39,12.9624 418.5,11.5 Z"/></g>
<g><path style="opacity:0.278" fill="#fee4c7" d="M 461.5,11.5 C 465.284,11.8891 468.284,13.5558 470.5,16.5C 468.177,15.222 465.677,14.222 463,13.5C 461.97,13.1639 461.47,12.4972 461.5,11.5 Z"/></g>
<g><path style="opacity:0.165" fill="#fee7cd" d="M 103.5,11.5 C 100.596,13.2948 97.5964,15.1282 94.5,17C 91.9172,19.7547 89.2505,22.2547 86.5,24.5C 90.1056,17.5712 95.7723,13.2379 103.5,11.5 Z"/></g>
<g><path style="opacity:0.043" fill="#fee6cb" d="M 470.5,16.5 C 474.167,18.1667 476.833,20.8333 478.5,24.5C 475.548,22.2149 472.882,19.5483 470.5,16.5 Z"/></g>
<g><path style="opacity:0.004" fill="#fef2e3" d="M 675.5,16.5 C 678.5,17.5 680.5,19.5 681.5,22.5C 679.167,20.8333 677.167,18.8333 675.5,16.5 Z"/></g>
<g><path style="opacity:0.2" fill="#fee8cf" d="M 145.5,11.5 C 153.821,13.3116 159.821,17.9782 163.5,25.5C 158.36,19.6898 152.36,15.0231 145.5,11.5 Z"/></g>
<g><path style="opacity:0.255" fill="#feedd8" d="M 1103.5,12.5 C 1105.82,13.8021 1107.16,15.8021 1107.5,18.5C 1105.18,17.1979 1103.84,15.1979 1103.5,12.5 Z"/></g>
<g><path style="opacity:0.306" fill="#fee6cb" d="M 236.5,11.5 C 243.476,13.3024 249.31,16.9691 254,22.5C 254.791,23.745 255.291,25.0783 255.5,26.5C 250.38,20.1146 244.047,15.4479 236.5,12.5C 236.5,12.1667 236.5,11.8333 236.5,11.5 Z"/></g>
<g><path style="opacity:0.078" fill="#feeedc" d="M 962.5,16.5 C 961.921,19.3311 960.588,21.6644 958.5,23.5C 959.079,20.6689 960.412,18.3356 962.5,16.5 Z"/></g>
<g><path style="opacity:0.078" fill="#fef2e4" d="M 1107.5,18.5 C 1109.8,19.733 1111.13,21.733 1111.5,24.5C 1109.67,22.8525 1108.34,20.8525 1107.5,18.5 Z"/></g>
<g><path style="opacity:0.063" fill="#feead4" d="M 940.5,14.5 C 943.858,17.8792 946.191,21.8792 947.5,26.5C 944.161,23.1651 941.828,19.1651 940.5,14.5 Z"/></g>
<g><path style="opacity:0.141" fill="#feefde" d="M 478.5,24.5 C 480.874,26.9336 482.208,29.9336 482.5,33.5C 480.416,30.9466 479.083,27.9466 478.5,24.5 Z"/></g>
<g><path style="opacity:0.122" fill="#fee2c2" d="M 681.5,22.5 C 683.588,24.3356 684.921,26.6689 685.5,29.5C 683.412,27.6644 682.079,25.3311 681.5,22.5 Z"/></g>
<g><path style="opacity:0.102" fill="#fde8d0" d="M 887.5,21.5 C 890.632,23.2031 892.299,25.8698 892.5,29.5C 892.167,29.5 891.833,29.5 891.5,29.5C 890.153,26.8068 888.82,24.1401 887.5,21.5 Z"/></g>
<g><path style="opacity:0.047" fill="#feedda" d="M 163.5,25.5 C 165.874,27.9336 167.208,30.9336 167.5,34.5C 167.167,34.5 166.833,34.5 166.5,34.5C 165.331,31.659 164.331,28.659 163.5,25.5 Z"/></g>
<g><path style="opacity:0.247" fill="#fee6cb" d="M 958.5,23.5 C 957.486,28.588 954.819,32.2547 950.5,34.5C 950.043,31.5944 949.043,28.9278 947.5,26.5C 949.708,27.8936 951.208,29.8936 952,32.5C 953.699,29.079 955.865,26.079 958.5,23.5 Z"/></g>
<g><path style="opacity:0.129" fill="#feecd6" d="M 86.5,24.5 C 85.8333,26.8333 85.1667,29.1667 84.5,31.5C 83.8333,31.8333 83.1667,32.1667 82.5,32.5C 82.8961,29.279 84.2295,26.6123 86.5,24.5 Z"/></g>
<g><path style="opacity:1" fill="#f9aa4e" d="M 301.5,29.5 C 303.966,28.3659 306.633,28.1993 309.5,29C 311.32,29.2004 312.653,30.0337 313.5,31.5C 309.523,30.7412 305.523,30.0746 301.5,29.5 Z"/></g>
<g><path style="opacity:0.736" fill="#f9b461" d="M 443.5,29.5 C 440.43,29.3677 437.43,29.701 434.5,30.5C 434.611,29.8826 434.944,29.3826 435.5,29C 438.367,28.1993 441.034,28.3659 443.5,29.5 Z"/></g>
<g><path style="opacity:0.355" fill="#fde0bf" d="M 173.5,27.5 C 173.833,27.5 174.167,27.5 174.5,27.5C 175.833,27.5 177.167,27.5 178.5,27.5C 179.833,37.5 179.833,47.5 178.5,57.5C 178.167,57.5 177.833,57.5 177.5,57.5C 176.167,57.5 174.833,57.5 173.5,57.5C 174.641,56.661 175.974,55.9943 177.5,55.5C 178.291,46.7759 178.624,38.1093 178.5,29.5C 176.447,29.5979 174.78,28.9313 173.5,27.5 Z"/></g>
<g><path style="opacity:0.904" fill="#f8a94b" d="M 178.5,27.5 C 179.828,32.1194 180.494,37.1194 180.5,42.5C 180.494,47.8806 179.828,52.8806 178.5,57.5C 179.833,47.5 179.833,37.5 178.5,27.5 Z"/></g>
<g><path style="opacity:0.114" fill="#feecd8" d="M 404.5,21.5 C 402.447,25.6068 400.447,29.6068 398.5,33.5C 398.167,33.5 397.833,33.5 397.5,33.5C 398.434,29.6272 399.934,25.9605 402,22.5C 402.671,21.7476 403.504,21.4142 404.5,21.5 Z"/></g>
<g><path style="opacity:0.4" fill="#fde1c2" d="M 737.5,26.5 C 737.741,28.8984 737.074,30.8984 735.5,32.5C 735.259,30.1016 735.926,28.1016 737.5,26.5 Z"/></g>
<g><path style="opacity:0.195" fill="#fde8cd" d="M 853.5,29.5 C 851.167,29.5 848.833,29.5 846.5,29.5C 846.5,38.5 846.5,47.5 846.5,56.5C 846.167,56.5 845.833,56.5 845.5,56.5C 845.5,47.1667 845.5,37.8333 845.5,28.5C 848.385,28.1936 851.052,28.5269 853.5,29.5 Z"/></g>
<g><path style="opacity:0.033" fill="#fef9f2" d="M 853.5,29.5 C 857.355,28.8454 860.188,30.1788 862,33.5C 862.667,39.5 862.667,45.5 862,51.5C 861.768,52.7375 861.268,53.7375 860.5,54.5C 856.01,56.1113 851.343,56.778 846.5,56.5C 846.5,47.5 846.5,38.5 846.5,29.5C 848.833,29.5 851.167,29.5 853.5,29.5 Z M 847.5,30.5 C 847.5,38.8333 847.5,47.1667 847.5,55.5C 851.247,55.6076 854.914,55.1076 858.5,54C 859.701,53.0975 860.535,51.9308 861,50.5C 861.667,45.1667 861.667,39.8333 861,34.5C 860.626,33.5838 860.126,32.7504 859.5,32C 855.605,30.7338 851.605,30.2338 847.5,30.5 Z"/></g>
<g><path style="opacity:0.286" fill="#feeedb" d="M 1111.5,24.5 C 1115.28,27.6364 1117.94,31.6364 1119.5,36.5C 1116.47,32.795 1113.81,28.795 1111.5,24.5 Z"/></g>
<g><path style="opacity:0.059" fill="#feecd8" d="M 133.5,52.5 C 134.678,49.459 135.345,46.2923 135.5,43C 135.746,38.3846 134.08,34.7179 130.5,32C 124.094,29.4706 118.928,30.9706 115,36.5C 114.337,41.5374 114.504,46.5374 115.5,51.5C 114.883,51.3893 114.383,51.056 114,50.5C 109.417,33.4194 115.584,26.9194 132.5,31C 134.049,32.214 135.215,33.714 136,35.5C 136.667,40.1667 136.667,44.8333 136,49.5C 135.623,50.9423 134.79,51.9423 133.5,52.5 Z"/></g>
<g><path style="opacity:0.094" fill="#fef5eb" d="M 655.5,35.5 C 656.162,39.4659 656.495,43.4659 656.5,47.5C 655.237,53.8274 651.237,56.8274 644.5,56.5C 638.495,56.8061 634.829,54.1394 633.5,48.5C 633.294,44.1018 633.627,39.7685 634.5,35.5C 634.628,33.9102 635.295,32.5769 636.5,31.5C 642.245,28.7593 647.912,28.926 653.5,32C 654.305,33.1127 654.972,34.2794 655.5,35.5 Z M 642.5,30.5 C 640.18,31.4185 638.013,32.7518 636,34.5C 634,40.1667 634,45.8333 636,51.5C 641.367,56.4478 647.034,56.7811 653,52.5C 656.228,45.9122 656.061,39.4122 652.5,33C 649.28,31.6476 645.947,30.8143 642.5,30.5 Z"/></g>
<g><path style="opacity:0.164" fill="#fee9d1" d="M 75.5,30.5 C 75.8333,30.5 76.1667,30.5 76.5,30.5C 74.0849,31.8142 71.2515,32.4809 68,32.5C 63.4573,33.2025 59.624,32.0358 56.5,29C 48.9253,24.388 42.2587,25.5547 36.5,32.5C 36.7512,30.8297 37.4178,29.3297 38.5,28C 46.0244,23.0373 53.0244,23.704 59.5,30C 64.8229,30.4994 70.1563,30.666 75.5,30.5 Z"/></g>
<g><path style="opacity:0.186" fill="#feefde" d="M 264.5,29.5 C 266.5,29.8333 268.5,30.1667 270.5,30.5C 270.5,39.1667 270.5,47.8333 270.5,56.5C 269.833,56.5 269.167,56.5 268.5,56.5C 269.469,48.2517 269.802,39.9183 269.5,31.5C 267.302,31.8799 265.635,31.2132 264.5,29.5 Z"/></g>
<g><path style="opacity:0.322" fill="#fee4c7" d="M 301.5,29.5 C 305.523,30.0746 309.523,30.7412 313.5,31.5C 314.833,31.8333 316.167,32.1667 317.5,32.5C 317.833,33.1667 318.167,33.8333 318.5,34.5C 313.355,32.5477 308.022,31.5477 302.5,31.5C 302.5,33.5 302.5,35.5 302.5,37.5C 304.806,37.0074 307.139,36.6741 309.5,36.5C 309.5,36.8333 309.5,37.1667 309.5,37.5C 307.039,38.531 304.373,39.1977 301.5,39.5C 301.5,36.1667 301.5,32.8333 301.5,29.5 Z"/></g>
<g><path style="opacity:0.011" fill="#fefdfb" d="M 334.5,29.5 C 334.833,29.5 335.167,29.5 335.5,29.5C 337.117,30.038 338.784,30.3713 340.5,30.5C 340.5,39.1667 340.5,47.8333 340.5,56.5C 339.5,56.5 338.5,56.5 337.5,56.5C 339.422,48.4363 340.088,40.103 339.5,31.5C 337.447,31.5979 335.78,30.9313 334.5,29.5 Z"/></g>
<g><path style="opacity:0.832" fill="#f9ae54" d="M 335.5,29.5 C 335.5,29.1667 335.5,28.8333 335.5,28.5C 337.262,28.3573 338.929,28.6906 340.5,29.5C 341.822,38.6582 341.822,47.6582 340.5,56.5C 340.5,47.8333 340.5,39.1667 340.5,30.5C 338.784,30.3713 337.117,30.038 335.5,29.5 Z"/></g>
<g><path style="opacity:0.027" fill="#fef2e4" d="M 333.5,10.5 C 353.66,9.50283 373.993,9.1695 394.5,9.5C 394.666,18.1731 394.5,26.8397 394,35.5C 390.606,36.4558 387.106,36.7892 383.5,36.5C 385.379,41.8701 386.045,47.5368 385.5,53.5C 381.206,53.423 377.039,52.7564 373,51.5C 372.36,53.5433 372.86,55.2099 374.5,56.5C 373.5,56.5 372.5,56.5 371.5,56.5C 371.5,54.5 371.5,52.5 371.5,50.5C 374.482,50.9629 377.482,51.2962 380.5,51.5C 381.568,52.4345 382.901,52.7678 384.5,52.5C 384.819,47.6367 384.486,42.97 383.5,38.5C 379.476,39.0381 375.476,39.7048 371.5,40.5C 371.5,36.8333 371.5,33.1667 371.5,29.5C 375.938,29.7134 379.938,31.0468 383.5,33.5C 386.625,34.4794 389.958,34.8128 393.5,34.5C 393.826,26.3159 393.492,18.3159 392.5,10.5C 373.167,10.5 353.833,10.5 334.5,10.5C 334.167,10.5 333.833,10.5 333.5,10.5 Z M 383.5,36.5 C 379.929,37.6422 376.262,38.3089 372.5,38.5C 372.5,36.1667 372.5,33.8333 372.5,31.5C 377.229,31.0669 380.896,32.7336 383.5,36.5 Z"/></g>
<g><path style="opacity:0.07" fill="#fdefdd" d="M 488.5,29.5 C 488.833,29.5 489.167,29.5 489.5,29.5C 491.435,30.1495 493.435,30.4828 495.5,30.5C 496.136,39.5645 495.47,48.2312 493.5,56.5C 493.5,48.1667 493.5,39.8333 493.5,31.5C 491.302,31.8799 489.635,31.2132 488.5,29.5 Z"/></g>
<g><path style="opacity:0.487" fill="#fbce98" d="M 526.5,30.5 C 526.173,39.6822 526.507,48.6822 527.5,57.5C 527.833,57.5 528.167,57.5 528.5,57.5C 529.167,57.5 529.833,57.5 530.5,57.5C 529.081,58.4511 527.415,58.7845 525.5,58.5C 525.173,48.985 525.506,39.6517 526.5,30.5 Z"/></g>
<g><path style="opacity:0.057" fill="#fef2e5" d="M 552.5,29.5 C 552.833,29.5 553.167,29.5 553.5,29.5C 555.435,30.1495 557.435,30.4828 559.5,30.5C 559.5,39.1667 559.5,47.8333 559.5,56.5C 558.5,56.5 557.5,56.5 556.5,56.5C 556.167,56.5 555.833,56.5 555.5,56.5C 557.422,48.4363 558.088,40.103 557.5,31.5C 555.302,31.8799 553.635,31.2132 552.5,29.5 Z"/></g>
<g><path style="opacity:0.013" fill="#ffebd6" d="M 595.5,29.5 C 594.713,31.1042 593.38,31.7709 591.5,31.5C 591.198,39.9183 591.531,48.2517 592.5,56.5C 591.833,56.5 591.167,56.5 590.5,56.5C 589.343,48.0099 589.176,39.3433 590,30.5C 591.699,29.5939 593.533,29.2606 595.5,29.5 Z"/></g>
<g><path style="opacity:0.007" fill="#fefdfb" d="M 763.5,31.5 C 762.833,32.5 762.167,33.5 761.5,34.5C 761.5,33.1667 761.5,31.8333 761.5,30.5C 762.925,28.9689 763.591,29.3023 763.5,31.5 Z"/></g>
<g><path style="opacity:0.693" fill="#ffce97" d="M 901.5,28.5 C 903.262,28.3573 904.929,28.6906 906.5,29.5C 907.822,38.6582 907.822,47.6582 906.5,56.5C 905.5,56.5 904.5,56.5 903.5,56.5C 904.263,55.7321 905.263,55.2321 906.5,55C 905.182,47.1668 905.182,39.3335 906.5,31.5C 904.739,30.6873 903.072,29.6873 901.5,28.5 Z"/></g>
<g><path style="opacity:0.202" fill="#feeedb" d="M 1003.5,29.5 C 1002.36,31.2132 1000.7,31.8799 998.5,31.5C 997.912,40.103 998.578,48.4363 1000.5,56.5C 999.5,56.5 998.5,56.5 997.5,56.5C 997.174,47.6506 997.507,38.9839 998.5,30.5C 1000.12,29.962 1001.78,29.6287 1003.5,29.5 Z"/></g>
<g><path style="opacity:0.551" fill="#fdd09c" d="M 1018.5,30.5 C 1019.66,38.9901 1019.82,47.6567 1019,56.5C 1017.99,57.3366 1016.82,57.67 1015.5,57.5C 1015.5,57.1667 1015.5,56.8333 1015.5,56.5C 1016.26,55.7321 1017.26,55.2321 1018.5,55C 1018.4,47.4413 1018.4,39.608 1018.5,31.5C 1018.5,31.1667 1018.5,30.8333 1018.5,30.5 Z"/></g>
<g><path style="opacity:0.18" fill="#feefde" d="M 1064.5,29.5 C 1066.22,29.6287 1067.88,29.962 1069.5,30.5C 1070.49,38.9839 1070.83,47.6506 1070.5,56.5C 1069.5,56.5 1068.5,56.5 1067.5,56.5C 1069.42,48.4363 1070.09,40.103 1069.5,31.5C 1067.3,31.8799 1065.64,31.2132 1064.5,29.5 Z"/></g>
<g><path style="opacity:0.149" fill="#fee8ce" d="M 1119.5,10.5 C 1119.5,10.8333 1119.5,11.1667 1119.5,11.5C 1119.17,17.5368 1119.5,23.5368 1120.5,29.5C 1121.74,30.2458 1123.07,30.5792 1124.5,30.5C 1124.67,34.8461 1124.5,39.1794 1124,43.5C 1123.62,42.944 1123.12,42.6107 1122.5,42.5C 1121.5,40.5 1120.5,38.5 1119.5,36.5C 1121.07,36.9371 1122.24,37.9371 1123,39.5C 1123.67,36.8333 1123.67,34.1667 1123,31.5C 1122.67,32.1667 1122.33,32.8333 1122,33.5C 1120.9,32.051 1119.73,30.7177 1118.5,29.5C 1118.18,22.9779 1118.51,16.6446 1119.5,10.5 Z"/></g>
<g><path style="opacity:0.827" fill="#f9b15b" d="M 1124.5,30.5 C 1125.65,35.3158 1125.82,40.3158 1125,45.5C 1123.58,44.9221 1122.75,43.9221 1122.5,42.5C 1123.12,42.6107 1123.62,42.944 1124,43.5C 1124.5,39.1794 1124.67,34.8461 1124.5,30.5 Z"/></g>
<g><path style="opacity:0.004" fill="#fffdfa" d="M 1145.5,29.5 C 1146.83,29.5 1148.17,29.5 1149.5,29.5C 1148.36,31.2132 1146.7,31.8799 1144.5,31.5C 1143.91,40.103 1144.58,48.4363 1146.5,56.5C 1146.17,56.5 1145.83,56.5 1145.5,56.5C 1144.17,52.5549 1143.51,48.2216 1143.5,43.5C 1143.56,38.5832 1144.23,33.9165 1145.5,29.5 Z"/></g>
<g><path style="opacity:0.18" fill="#fee8cf" d="M 255.5,26.5 C 256.117,26.6107 256.617,26.944 257,27.5C 259.568,35.3857 260.068,43.3857 258.5,51.5C 258.167,51.5 257.833,51.5 257.5,51.5C 257.95,43.0391 257.284,34.7057 255.5,26.5 Z"/></g>
<g><path style="opacity:0.116" fill="#fedebb" d="M 685.5,29.5 C 687.223,31.78 687.889,34.4467 687.5,37.5C 687.81,40.7131 687.477,43.7131 686.5,46.5C 686.625,40.7969 686.292,35.1302 685.5,29.5 Z"/></g>
<g><path style="opacity:0.294" fill="#fcca90" d="M 761.5,30.5 C 761.5,31.8333 761.5,33.1667 761.5,34.5C 761.5,34.8333 761.5,35.1667 761.5,35.5C 760.833,36.5 760.167,37.5 759.5,38.5C 759.294,35.5049 759.96,32.8383 761.5,30.5 Z"/></g>
<g><path style="opacity:0.306" fill="#fdd5a7" d="M 765.5,36.5 C 765.167,36.5 764.833,36.5 764.5,36.5C 763.962,34.8828 763.629,33.2161 763.5,31.5C 763.591,29.3023 762.925,28.9689 761.5,30.5C 761.628,28.9102 762.295,27.5769 763.5,26.5C 764.808,29.7063 765.475,33.0396 765.5,36.5 Z"/></g>
<g><path style="opacity:0.015" fill="#fef7f0" d="M 318.5,34.5 C 321.5,34.5 324.5,34.5 327.5,34.5C 326.486,35.7647 324.986,36.4313 323,36.5C 321.014,36.4313 319.514,35.7647 318.5,34.5 Z"/></g>
<g><path style="opacity:0.065" fill="#fee5c9" d="M 735.5,32.5 C 734.611,37.7285 733.278,42.7285 731.5,47.5C 731.5,46.5 731.5,45.5 731.5,44.5C 732.235,40.1953 733.568,36.1953 735.5,32.5 Z"/></g>
<g><path style="opacity:0.149" fill="#feeedb" d="M 789.5,29.5 C 791.432,33.1953 792.765,37.1953 793.5,41.5C 792.034,40.653 791.2,39.3197 791,37.5C 790.178,34.8832 789.678,32.2165 789.5,29.5 Z"/></g>
<g><path style="opacity:0.692" fill="#ffd2a1" d="M 315.5,50.5 C 313.585,50.7845 311.919,50.4511 310.5,49.5C 311.833,49.5 313.167,49.5 314.5,49.5C 314.5,45.5 314.5,41.5 314.5,37.5C 312.833,37.5 311.167,37.5 309.5,37.5C 309.5,37.1667 309.5,36.8333 309.5,36.5C 311.67,35.232 313.837,35.232 316,36.5C 316.815,41.3522 316.648,46.0189 315.5,50.5 Z"/></g>
<g><path style="opacity:0.175" fill="#fde3c5" d="M 36.5,32.5 C 35.2306,37.5141 35.2306,42.5141 36.5,47.5C 35.8826,47.3893 35.3826,47.056 35,46.5C 34.8333,44.1667 34.6667,41.8333 34.5,39.5C 34.5286,36.7305 35.1952,34.3972 36.5,32.5 Z"/></g>
<g><path style="opacity:0.287" fill="#fee5c8" d="M 222.5,55.5 C 218.232,56.3726 213.898,56.7059 209.5,56.5C 209.334,47.4938 209.5,38.4938 210,29.5C 216.584,27.2123 222.25,28.5456 227,33.5C 227.667,39.8333 227.667,46.1667 227,52.5C 225.871,54.1412 224.371,55.1412 222.5,55.5 Z M 214.5,29.5 C 213.791,30.404 212.791,30.7373 211.5,30.5C 211.5,38.8333 211.5,47.1667 211.5,55.5C 215.247,55.6076 218.914,55.1076 222.5,54C 224.694,52.1935 226.027,49.8601 226.5,47C 226.958,42.5324 226.458,38.0324 225,33.5C 221.893,31.1739 218.393,29.8406 214.5,29.5 Z"/></g>
<g><path style="opacity:0.463" fill="#fdddb9" d="M 397.5,33.5 C 397.833,33.5 398.167,33.5 398.5,33.5C 398.5,39.5 398.5,45.5 398.5,51.5C 398.167,51.5 397.833,51.5 397.5,51.5C 396.239,45.4939 396.239,39.4939 397.5,33.5 Z"/></g>
<g><path style="opacity:0.217" fill="#feecd8" d="M 607.5,23.5 C 606.167,27.1667 604.833,30.8333 603.5,34.5C 602.315,41.017 602.315,47.6837 603.5,54.5C 602.883,54.3893 602.383,54.056 602,53.5C 601.333,46.5 601.333,39.5 602,32.5C 603.386,29.0282 605.22,26.0282 607.5,23.5 Z"/></g>
<g><path style="opacity:0.543" fill="#fed8ad" d="M 166.5,34.5 C 166.833,34.5 167.167,34.5 167.5,34.5C 168.787,39.8644 168.787,45.1977 167.5,50.5C 166.833,50.8333 166.167,51.1667 165.5,51.5C 166.407,45.8936 166.74,40.227 166.5,34.5 Z"/></g>
<g><path style="opacity:0.478" fill="#fbcc93" d="M 383.5,38.5 C 384.486,42.97 384.819,47.6367 384.5,52.5C 382.901,52.7678 381.568,52.4345 380.5,51.5C 381.5,51.5 382.5,51.5 383.5,51.5C 383.5,47.1667 383.5,42.8333 383.5,38.5 Z"/></g>
<g><path style="opacity:0.788" fill="#fac07a" d="M 84.5,31.5 C 83.5733,38.443 83.24,45.443 83.5,52.5C 83.1667,52.5 82.8333,52.5 82.5,52.5C 82.5,46.1667 82.5,39.8333 82.5,33.5C 82.5,33.1667 82.5,32.8333 82.5,32.5C 83.1667,32.1667 83.8333,31.8333 84.5,31.5 Z"/></g>
<g><path style="opacity:0.101" fill="#feefdf" d="M 443.5,29.5 C 450.06,31.425 452.727,35.925 451.5,43C 451.77,54.7077 446.103,59.041 434.5,56C 432.376,54.8783 430.543,53.3783 429,51.5C 428.333,46.1667 428.333,40.8333 429,35.5C 430.076,32.921 431.909,31.2543 434.5,30.5C 437.43,29.701 440.43,29.3677 443.5,29.5 Z M 437.5,30.5 C 434.267,31.8947 431.767,34.228 430,37.5C 428.348,43.9643 429.848,49.4643 434.5,54C 439.913,56.459 444.747,55.6256 449,51.5C 451.379,45.0076 450.879,38.8409 447.5,33C 444.392,31.2415 441.059,30.4081 437.5,30.5 Z"/></g>
<g><path style="opacity:0.934" fill="#f9ab50" d="M 603.5,34.5 C 603.435,41.5244 603.768,48.5244 604.5,55.5C 604.167,55.5 603.833,55.5 603.5,55.5C 603.5,55.1667 603.5,54.8333 603.5,54.5C 602.315,47.6837 602.315,41.017 603.5,34.5 Z"/></g>
<g><path style="opacity:0.571" fill="#fbc381" d="M 634.5,35.5 C 633.627,39.7685 633.294,44.1018 633.5,48.5C 632.837,46.5274 632.504,44.3608 632.5,42C 632.533,39.3897 633.2,37.223 634.5,35.5 Z"/></g>
<g><path style="opacity:0.347" fill="#fef2e3" d="M 82.5,33.5 C 82.5,39.8333 82.5,46.1667 82.5,52.5C 79.9147,46.1749 79.9147,39.8416 82.5,33.5 Z"/></g>
<g><path style="opacity:0.714" fill="#fabc72" d="M 655.5,35.5 C 656.926,37.6789 657.592,40.1789 657.5,43C 657.492,44.7067 657.158,46.2067 656.5,47.5C 656.495,43.4659 656.162,39.4659 655.5,35.5 Z"/></g>
<g><path style="opacity:0.012" fill="#fff5eb" d="M 761.5,35.5 C 760.982,39.5472 760.148,43.5472 759,47.5C 758.617,48.056 758.117,48.3893 757.5,48.5C 757.851,45.0968 758.518,41.7635 759.5,38.5C 760.167,37.5 760.833,36.5 761.5,35.5 Z"/></g>
<g><path style="opacity:0.835" fill="#f9b15c" d="M 3.5,27.5 C 2.7243,34.1373 2.39097,40.8039 2.5,47.5C 1.83558,44.8541 1.50224,42.0208 1.5,39C 1.28574,34.8673 1.95241,31.034 3.5,27.5 Z"/></g>
<g><path style="opacity:0.137" fill="#fef9f2" d="M 482.5,33.5 C 484.847,39.5275 484.847,45.5275 482.5,51.5C 482.5,45.5 482.5,39.5 482.5,33.5 Z"/></g>
<g><path style="opacity:0.781" fill="#f9b769" d="M 1090.5,44.5 C 1089.52,48.2984 1089.18,52.2984 1089.5,56.5C 1088.19,52.3171 1088.19,47.9838 1089.5,43.5C 1090.11,43.6236 1090.44,43.9569 1090.5,44.5 Z"/></g>
<g><path style="opacity:0.137" fill="#feeedb" d="M 687.5,37.5 C 688.643,40.9758 688.81,44.6425 688,48.5C 687.902,51.5224 687.068,54.1891 685.5,56.5C 686.207,53.2139 686.54,49.8806 686.5,46.5C 687.477,43.7131 687.81,40.7131 687.5,37.5 Z"/></g>
<g><path style="opacity:0.865" fill="#f9ae55" d="M 891.5,29.5 C 891.833,29.5 892.167,29.5 892.5,29.5C 893.801,38.493 893.801,47.493 892.5,56.5C 892.167,56.5 891.833,56.5 891.5,56.5C 892.756,47.4921 892.756,38.4921 891.5,29.5 Z"/></g>
<g><path style="opacity:0.221" fill="#fee9d2" d="M 1090.5,44.5 C 1091.74,45.9649 1092.74,47.6316 1093.5,49.5C 1092.5,49.5858 1091.67,49.2524 1091,48.5C 1090.28,51.2605 1090.44,53.9272 1091.5,56.5C 1090.83,56.5 1090.17,56.5 1089.5,56.5C 1089.18,52.2984 1089.52,48.2984 1090.5,44.5 Z"/></g>
<g><path style="opacity:0.043" fill="#fef0e0" d="M 731.5,44.5 C 731.5,45.5 731.5,46.5 731.5,47.5C 730.731,49.6674 729.731,51.834 728.5,54C 726.866,54.4935 725.199,54.6602 723.5,54.5C 724.641,53.661 725.974,52.9943 727.5,52.5C 728.659,49.6517 729.992,46.9851 731.5,44.5 Z"/></g>
<g><path style="opacity:0.86" fill="#f8ab4e" d="M 938.5,46.5 C 937.506,56.3194 937.173,66.3194 937.5,76.5C 937.167,76.5 936.833,76.5 936.5,76.5C 936.168,66.1452 936.501,55.8119 937.5,45.5C 938.107,45.6236 938.44,45.9569 938.5,46.5 Z"/></g>
<g><path style="opacity:0.587" fill="#fed2a1" d="M 966.5,46.5 C 967.494,56.3194 967.827,66.3194 967.5,76.5C 967.167,76.5 966.833,76.5 966.5,76.5C 965.819,67.7236 965.485,59.057 965.5,50.5C 966.167,50.5 966.5,50.1667 966.5,49.5C 966.5,48.5 966.5,47.5 966.5,46.5 Z"/></g>
<g><path style="opacity:0.321" fill="#fee8cf" d="M 310.5,49.5 C 311.919,50.4511 313.585,50.7845 315.5,50.5C 314.726,51.1471 313.726,51.4805 312.5,51.5C 309.154,50.8295 305.821,50.1628 302.5,49.5C 302.5,51.8333 302.5,54.1667 302.5,56.5C 303.833,56.5 305.167,56.5 306.5,56.5C 305.081,57.4511 303.415,57.7845 301.5,57.5C 301.5,54.5 301.5,51.5 301.5,48.5C 304.518,48.7038 307.518,49.0371 310.5,49.5 Z"/></g>
<g><path style="opacity:0.125" fill="#feedd9" d="M 938.5,46.5 C 943.243,53.0484 947.243,60.0484 950.5,67.5C 945.958,62.1146 942.125,56.1146 939,49.5C 938.83,59.009 938.33,68.3423 937.5,77.5C 937.5,77.1667 937.5,76.8333 937.5,76.5C 937.173,66.3194 937.506,56.3194 938.5,46.5 Z"/></g>
<g><path style="opacity:0.047" fill="#fef2e4" d="M 966.5,46.5 C 966.5,47.5 966.5,48.5 966.5,49.5C 965.833,49.5 965.5,49.8333 965.5,50.5C 965.167,50.5 964.833,50.5 964.5,50.5C 964.66,48.847 965.326,47.5137 966.5,46.5 Z"/></g>
<g><path style="opacity:0.106" fill="#feecd8" d="M 764.5,36.5 C 764.833,36.5 765.167,36.5 765.5,36.5C 766.697,41.1174 768.03,45.7841 769.5,50.5C 765.116,50.8256 760.783,50.4922 756.5,49.5C 756.624,48.8933 756.957,48.56 757.5,48.5C 760.687,49.8056 764.02,49.8056 767.5,48.5C 765.767,44.7462 764.767,40.7462 764.5,36.5 Z"/></g>
<g><path style="opacity:0.482" fill="#fee7cd" d="M 36.5,47.5 C 38.7574,49.9233 41.4241,51.7567 44.5,53C 54.6055,54.1705 64.4388,53.0038 74,49.5C 75.0698,49.528 75.9032,49.8614 76.5,50.5C 74.901,50.2322 73.5676,50.5655 72.5,51.5C 62.69,54.2716 52.69,55.1049 42.5,54C 39.2672,52.9013 37.2672,50.7347 36.5,47.5 Z"/></g>
<g><path style="opacity:0.035" fill="#fef6ed" d="M 892.5,29.5 C 896.495,38.4785 896.495,47.4785 892.5,56.5C 893.801,47.493 893.801,38.493 892.5,29.5 Z"/></g>
<g><path style="opacity:0.586" fill="#ffd8ae" d="M 72.5,51.5 C 73.5676,50.5655 74.901,50.2322 76.5,50.5C 77.6546,57.3209 77.8213,64.3209 77,71.5C 76.4115,73.8633 74.9115,74.8633 72.5,74.5C 73.172,73.7326 74.0053,73.0659 75,72.5C 75.4996,65.5079 75.6663,58.5079 75.5,51.5C 74.5,51.5 73.5,51.5 72.5,51.5 Z"/></g>
<g><path style="opacity:0.657" fill="#ffd3a2" d="M 327.5,76.5 C 327.167,76.5 326.833,76.5 326.5,76.5C 326.5,68.8333 326.5,61.1667 326.5,53.5C 323.43,53.3677 320.43,53.701 317.5,54.5C 317.833,53.8333 318.167,53.1667 318.5,52.5C 319.793,51.8418 321.293,51.5085 323,51.5C 324.981,51.6292 326.647,52.2958 328,53.5C 328.822,61.3446 328.656,69.0113 327.5,76.5 Z"/></g>
<g><path style="opacity:0.004" fill="#fefffe" d="M 373.5,53.5 C 374.833,54.1667 374.833,54.1667 373.5,53.5 Z"/></g>
<g><path style="opacity:0.454" fill="#fbce98" d="M 537.5,53.5 C 540.625,52.5206 543.958,52.1872 547.5,52.5C 547.826,60.6841 547.492,68.6841 546.5,76.5C 546.5,68.8333 546.5,61.1667 546.5,53.5C 543.5,53.5 540.5,53.5 537.5,53.5 Z"/></g>
<g><path style="opacity:0.099" fill="#fef5ea" d="M 546.5,77.5 C 546.5,77.1667 546.5,76.8333 546.5,76.5C 547.492,68.6841 547.826,60.6841 547.5,52.5C 543.958,52.1872 540.625,52.5206 537.5,53.5C 535.33,55.0862 532.996,56.4196 530.5,57.5C 529.833,57.5 529.167,57.5 528.5,57.5C 531.263,55.9202 533.93,54.0869 536.5,52C 540.486,51.5012 544.486,51.3345 548.5,51.5C 549.136,60.5645 548.47,69.2312 546.5,77.5 Z"/></g>
<g><path style="opacity:0.039" fill="#fef2e5" d="M 115.5,51.5 C 121.24,56.4564 127.24,56.7897 133.5,52.5C 133.586,53.4959 133.252,54.3292 132.5,55C 127.473,56.9386 122.473,56.9386 117.5,55C 116.177,54.1841 115.511,53.0174 115.5,51.5 Z"/></g>
<g><path style="opacity:0.102" fill="#fef4e8" d="M 318.5,52.5 C 318.167,53.1667 317.833,53.8333 317.5,54.5C 313.985,55.9193 310.319,56.586 306.5,56.5C 310.341,54.9974 314.341,53.6641 318.5,52.5 Z"/></g>
<g><path style="opacity:0.012" fill="#fff2e4" d="M 1093.5,50.5 C 1096.06,52.1505 1097.73,54.4838 1098.5,57.5C 1096.1,55.7036 1094.43,53.3702 1093.5,50.5 Z"/></g>
<g><path style="opacity:0.725" fill="#f9b15b" d="M 222.5,55.5 C 220.777,56.8001 218.61,57.4668 216,57.5C 213.639,57.4961 211.473,57.1627 209.5,56.5C 213.898,56.7059 218.232,56.3726 222.5,55.5 Z"/></g>
<g><path style="opacity:0.07" fill="#fff8f0" d="M 723.5,54.5 C 723.5,61.8333 723.5,69.1667 723.5,76.5C 723.5,76.8333 723.5,77.1667 723.5,77.5C 722.624,77.6309 721.957,77.2975 721.5,76.5C 722.813,70.6795 722.813,64.8461 721.5,59C 721.899,57.2725 722.566,55.7725 723.5,54.5 Z"/></g>
<g><path style="opacity:0.711" fill="#f9b25d" d="M 860.5,54.5 C 860.119,55.9311 859.119,56.7645 857.5,57C 853.311,57.8119 849.311,57.6453 845.5,56.5C 845.833,56.5 846.167,56.5 846.5,56.5C 851.343,56.778 856.01,56.1113 860.5,54.5 Z"/></g>
<g><path style="opacity:0.033" fill="#ffecd8" d="M 167.5,50.5 C 165.898,62.7648 159.232,70.7648 147.5,74.5C 152.681,71.8337 157.181,68.1671 161,63.5C 163.783,59.9846 165.283,55.9846 165.5,51.5C 166.167,51.1667 166.833,50.8333 167.5,50.5 Z"/></g>
<g><path style="opacity:0.008" fill="#fff2e4" d="M 257.5,51.5 C 257.833,51.5 258.167,51.5 258.5,51.5C 258.536,54.461 257.536,56.7943 255.5,58.5C 255.927,55.9902 256.593,53.6568 257.5,51.5 Z"/></g>
<g><path style="opacity:0.004" fill="#fffaf4" d="M 1091.5,56.5 C 1093.14,56.2865 1094.64,56.6198 1096,57.5C 1096.82,64.0137 1096.65,70.3471 1095.5,76.5C 1095.82,70.31 1095.49,64.31 1094.5,58.5C 1093.5,57.8333 1092.5,57.1667 1091.5,56.5 Z"/></g>
<g><path style="opacity:0.735" fill="#ffcc95" d="M 173.5,57.5 C 174.833,57.5 176.167,57.5 177.5,57.5C 176.791,58.404 175.791,58.7373 174.5,58.5C 174.5,64.5 174.5,70.5 174.5,76.5C 174.167,76.5 173.833,76.5 173.5,76.5C 172.193,70.2657 172.193,63.9324 173.5,57.5 Z"/></g>
<g><path style="opacity:0.753" fill="#fab769" d="M 903.5,56.5 C 904.5,56.5 905.5,56.5 906.5,56.5C 905.22,57.9313 903.553,58.5979 901.5,58.5C 901.5,64.5 901.5,70.5 901.5,76.5C 900.51,70.3554 900.177,64.0221 900.5,57.5C 901.791,57.7373 902.791,57.404 903.5,56.5 Z"/></g>
<g><path style="opacity:0.035" fill="#feedd9" d="M 482.5,52.5 C 482.208,56.0664 480.874,59.0664 478.5,61.5C 479.099,57.9789 480.432,54.9789 482.5,52.5 Z"/></g>
<g><path style="opacity:0.235" fill="#fee8ce" d="M 603.5,55.5 C 603.833,55.5 604.167,55.5 604.5,55.5C 605.677,57.6794 606.677,60.0128 607.5,62.5C 605.069,60.954 603.736,58.6207 603.5,55.5 Z"/></g>
<g><path style="opacity:0.055" fill="#ffebd5" d="M 1098.5,57.5 C 1100.45,58.0347 1101.45,59.368 1101.5,61.5C 1099.55,60.9653 1098.55,59.632 1098.5,57.5 Z"/></g>
<g><path style="opacity:0.204" fill="#feecd6" d="M 397.5,51.5 C 397.833,51.5 398.167,51.5 398.5,51.5C 400.749,57.9877 404.082,63.9877 408.5,69.5C 402.32,65.1595 398.654,59.1595 397.5,51.5 Z"/></g>
<g><path style="opacity:0.227" fill="#feecd9" d="M 6.5,18.5 C 5.30237,21.4262 4.30237,24.4262 3.5,27.5C 1.95241,31.034 1.28574,34.8673 1.5,39C 1.50224,42.0208 1.83558,44.8541 2.5,47.5C 3.35283,51.5535 4.51949,55.5535 6,59.5C 8.66863,62.9997 11.502,66.333 14.5,69.5C 7.56615,65.0406 3.06615,58.7072 1,50.5C 0.333333,43.5 0.333333,36.5 1,29.5C 1.80996,25.2131 3.64329,21.5464 6.5,18.5 Z"/></g>
<g><path style="opacity:0.243" fill="#fee4c7" d="M 255.5,59.5 C 255.291,60.9217 254.791,62.255 254,63.5C 249.059,69.8882 242.559,73.5549 234.5,74.5C 237.403,72.3523 240.736,70.8523 244.5,70C 248.075,66.2909 251.742,62.7909 255.5,59.5 Z"/></g>
<g><path style="opacity:0.22" fill="#fee8d0" d="M 607.5,62.5 C 609.543,63.5794 610.876,65.246 611.5,67.5C 609.003,66.8707 607.67,65.204 607.5,62.5 Z"/></g>
<g><path style="opacity:0.098" fill="#fee8cf" d="M 685.5,56.5 C 683.453,62.7406 679.786,67.9073 674.5,72C 672.975,73.0086 671.308,73.5086 669.5,73.5C 676.294,69.044 681.628,63.3773 685.5,56.5 Z"/></g>
<g><path style="opacity:0.078" fill="#feedd8" d="M 82.5,52.5 C 82.8333,52.5 83.1667,52.5 83.5,52.5C 85.7623,61.7717 91.0956,68.7717 99.5,73.5C 89.8125,69.8074 84.1459,62.8074 82.5,52.5 Z"/></g>
<g><path style="opacity:0.341" fill="#fee9d0" d="M 964.5,50.5 C 961.421,56.2629 958.254,61.9295 955,67.5C 953.196,69.9815 951.696,69.9815 950.5,67.5C 951.675,67.719 952.675,67.3857 953.5,66.5C 956.457,60.5044 960.124,55.171 964.5,50.5 Z"/></g>
<g><path style="opacity:0.043" fill="#feeedb" d="M 891.5,56.5 C 891.833,56.5 892.167,56.5 892.5,56.5C 889.594,65.3119 883.594,70.9786 874.5,73.5C 874.5,73.1667 874.5,72.8333 874.5,72.5C 882.109,69.2238 887.776,63.8905 891.5,56.5 Z"/></g>
<g><path style="opacity:0.133" fill="#feefde" d="M 408.5,69.5 C 411.198,69.8449 413.198,71.1782 414.5,73.5C 411.733,73.1298 409.733,71.7964 408.5,69.5 Z"/></g>
<g><path style="opacity:0.051" fill="#ffe7cd" d="M 611.5,67.5 C 614.804,69.8236 618.138,72.157 621.5,74.5C 617.052,73.713 613.719,71.3796 611.5,67.5 Z"/></g>
<g><path style="opacity:0.047" fill="#fee6cb" d="M 478.5,61.5 C 474.355,69.7587 467.688,74.9254 458.5,77C 445.1,79.1854 431.766,78.8521 418.5,76C 417.142,75.0656 415.808,74.2323 414.5,73.5C 427.876,77.6246 441.543,78.4579 455.5,76C 464.916,73.6424 472.582,68.809 478.5,61.5 Z"/></g>
<g><path style="opacity:0.627" fill="#fdcb92" d="M 874.5,72.5 C 874.5,72.8333 874.5,73.1667 874.5,73.5C 873.292,74.2341 871.959,74.5674 870.5,74.5C 869.833,74.5 869.167,74.5 868.5,74.5C 870.102,72.9261 872.102,72.2594 874.5,72.5 Z"/></g>
<g><path style="opacity:0.299" fill="#fde3c4" d="M 234.5,74.5 C 234.389,75.1174 234.056,75.6174 233.5,76C 231.5,76.3333 229.5,76.6667 227.5,77C 209.329,77.8287 191.329,77.662 173.5,76.5C 173.833,76.5 174.167,76.5 174.5,76.5C 194.569,77.0323 214.569,76.3657 234.5,74.5 Z"/></g>
<g><path style="opacity:0.3" fill="#fde3c4" d="M 268.5,56.5 C 267.739,57.3909 266.739,58.0576 265.5,58.5C 264.504,64.4632 264.171,70.4632 264.5,76.5C 285.167,76.5 305.833,76.5 326.5,76.5C 326.833,76.5 327.167,76.5 327.5,76.5C 306.34,77.4973 285.007,77.8306 263.5,77.5C 263.334,70.825 263.5,64.1583 264,57.5C 265.356,56.6198 266.856,56.2865 268.5,56.5 Z"/></g>
<g><path style="opacity:0.294" fill="#fddebb" d="M 337.5,56.5 C 336.791,57.404 335.791,57.7373 334.5,57.5C 334.177,64.0221 334.51,70.3554 335.5,76.5C 349.167,76.5 362.833,76.5 376.5,76.5C 377.066,69.5491 376.399,62.8824 374.5,56.5C 375.822,56.33 376.989,56.6634 378,57.5C 378.5,64.1583 378.666,70.825 378.5,77.5C 363.5,77.5 348.5,77.5 333.5,77.5C 333.5,70.5 333.5,63.5 333.5,56.5C 334.833,56.5 336.167,56.5 337.5,56.5 Z"/></g>
<g><path style="opacity:0.815" fill="#f9af58" d="M 337.5,56.5 C 338.5,56.5 339.5,56.5 340.5,56.5C 339.22,57.9313 337.553,58.5979 335.5,58.5C 335.5,64.5 335.5,70.5 335.5,76.5C 334.51,70.3554 334.177,64.0221 334.5,57.5C 335.791,57.7373 336.791,57.404 337.5,56.5 Z"/></g>
<g><path style="opacity:0.296" fill="#fddbb4" d="M 493.5,56.5 C 492.469,57.2485 491.302,57.9152 490,58.5C 489.501,64.4908 489.334,70.4908 489.5,76.5C 508.5,76.5 527.5,76.5 546.5,76.5C 546.5,76.8333 546.5,77.1667 546.5,77.5C 527.167,77.5 507.833,77.5 488.5,77.5C 488.763,71.9504 488.43,66.4504 487.5,61C 487.94,57.3914 489.94,55.8914 493.5,56.5 Z"/></g>
<g><path style="opacity:0.296" fill="#fdddb7" d="M 555.5,56.5 C 555.833,56.5 556.167,56.5 556.5,56.5C 555.791,57.404 554.791,57.7373 553.5,57.5C 553.5,63.8333 553.5,70.1667 553.5,76.5C 567.5,76.5 581.5,76.5 595.5,76.5C 595.5,70.1667 595.5,63.8333 595.5,57.5C 593.585,57.7845 591.919,57.4511 590.5,56.5C 591.167,56.5 591.833,56.5 592.5,56.5C 593.833,56.5 595.167,56.5 596.5,56.5C 596.5,63.5 596.5,70.5 596.5,77.5C 581.833,77.5 567.167,77.5 552.5,77.5C 552.5,70.5 552.5,63.5 552.5,56.5C 553.5,56.5 554.5,56.5 555.5,56.5 Z"/></g>
<g><path style="opacity:0.304" fill="#fee5c8" d="M 793.5,41.5 C 795.123,44.5996 796.457,47.933 797.5,51.5C 799.173,53.0863 801.173,53.7529 803.5,53.5C 803.5,61.5 803.5,69.5 803.5,77.5C 793.5,77.5 783.5,77.5 773.5,77.5C 773.048,74.124 772.382,70.7906 771.5,67.5C 765.833,66.1667 760.167,66.1667 754.5,67.5C 753.449,70.757 752.782,74.0903 752.5,77.5C 742.833,77.5 733.167,77.5 723.5,77.5C 723.5,77.1667 723.5,76.8333 723.5,76.5C 732.5,76.5 741.5,76.5 750.5,76.5C 750.952,73.124 751.618,69.7906 752.5,66.5C 759.468,65.503 766.468,65.1697 773.5,65.5C 773.724,69.1788 774.058,72.8455 774.5,76.5C 783.833,76.5 793.167,76.5 802.5,76.5C 802.5,69.1667 802.5,61.8333 802.5,54.5C 799.956,54.8957 797.789,54.229 796,52.5C 794.69,48.9296 793.857,45.263 793.5,41.5 Z"/></g>
<g><path style="opacity:0.298" fill="#fde2c3" d="M 812.5,56.5 C 811.791,57.404 810.791,57.7373 809.5,57.5C 809.5,63.8333 809.5,70.1667 809.5,76.5C 825.837,76.6666 842.17,76.4999 858.5,76C 861.88,75.6614 865.213,75.1614 868.5,74.5C 869.167,74.5 869.833,74.5 870.5,74.5C 868.189,76.0682 865.522,76.9016 862.5,77C 844.503,77.4999 826.503,77.6666 808.5,77.5C 808.5,70.5 808.5,63.5 808.5,56.5C 809.833,56.5 811.167,56.5 812.5,56.5 Z"/></g>
<g><path style="opacity:0.298" fill="#fde1c0" d="M 903.5,56.5 C 902.791,57.404 901.791,57.7373 900.5,57.5C 900.177,64.0221 900.51,70.3554 901.5,76.5C 913.167,76.5 924.833,76.5 936.5,76.5C 936.833,76.5 937.167,76.5 937.5,76.5C 937.5,76.8333 937.5,77.1667 937.5,77.5C 924.833,77.5 912.167,77.5 899.5,77.5C 899.5,70.5 899.5,63.5 899.5,56.5C 900.833,56.5 902.167,56.5 903.5,56.5 Z"/></g>
<g><path style="opacity:0.299" fill="#fddfbb" d="M 997.5,56.5 C 998.5,56.5 999.5,56.5 1000.5,56.5C 1001.83,56.5 1003.17,56.5 1004.5,56.5C 1004.5,63.5 1004.5,70.5 1004.5,77.5C 991.656,77.8287 978.989,77.4954 966.5,76.5C 966.833,76.5 967.167,76.5 967.5,76.5C 979.5,76.5 991.5,76.5 1003.5,76.5C 1003.67,70.4908 1003.5,64.4908 1003,58.5C 1001.05,57.8906 999.218,57.224 997.5,56.5 Z"/></g>
<g><path style="opacity:0.3" fill="#fde8ce" d="M 1055.5,29.5 C 1054.38,30.9473 1052.88,31.9473 1051,32.5C 1050.17,40.1883 1050.34,47.855 1051.5,55.5C 1053.73,55.8645 1055.57,56.8645 1057,58.5C 1057.67,64.5 1057.67,70.5 1057,76.5C 1041.91,77.4908 1026.74,77.8242 1011.5,77.5C 1011.5,70.5 1011.5,63.5 1011.5,56.5C 1012.83,56.5 1014.17,56.5 1015.5,56.5C 1015.5,56.8333 1015.5,57.1667 1015.5,57.5C 1014.5,57.4142 1013.67,57.7476 1013,58.5C 1012.5,64.4908 1012.33,70.4908 1012.5,76.5C 1026.83,76.5 1041.17,76.5 1055.5,76.5C 1055.67,70.4908 1055.5,64.4908 1055,58.5C 1053.56,57.7402 1052.06,57.0736 1050.5,56.5C 1049.5,47.8589 1049.17,39.1922 1049.5,30.5C 1051.5,30.1667 1053.5,29.8333 1055.5,29.5 Z"/></g>
<g><path style="opacity:0.302" fill="#fdddb6" d="M 1067.5,56.5 C 1066.79,57.404 1065.79,57.7373 1064.5,57.5C 1064.5,63.8333 1064.5,70.1667 1064.5,76.5C 1074.5,76.5 1084.5,76.5 1094.5,76.5C 1094.5,70.5 1094.5,64.5 1094.5,58.5C 1095.49,64.31 1095.82,70.31 1095.5,76.5C 1085.01,77.4944 1074.35,77.8278 1063.5,77.5C 1063.5,70.5 1063.5,63.5 1063.5,56.5C 1064.83,56.5 1066.17,56.5 1067.5,56.5 Z"/></g>
<g><path style="opacity:0.303" fill="#fde3c4" d="M 1145.5,56.5 C 1145.83,56.5 1146.17,56.5 1146.5,56.5C 1147.83,56.5 1149.17,56.5 1150.5,56.5C 1150.5,63.5 1150.5,70.5 1150.5,77.5C 1137.17,77.5 1123.83,77.5 1110.5,77.5C 1110.65,76.448 1110.48,75.448 1110,74.5C 1106.55,70.5534 1103.72,66.22 1101.5,61.5C 1105.73,65.7473 1109.4,70.5806 1112.5,76C 1124.83,76.4999 1137.16,76.6665 1149.5,76.5C 1149.67,70.4908 1149.5,64.4908 1149,58.5C 1147.7,57.9152 1146.53,57.2485 1145.5,56.5 Z"/></g>
<g><path style="opacity:0.192" fill="#fee8d0" d="M 14.5,69.5 C 18.3907,70.8545 22.0574,72.6878 25.5,75C 29.1141,75.9449 32.7808,76.6116 36.5,77C 48.6011,77.6541 60.6011,76.8208 72.5,74.5C 72.0825,75.2216 71.4158,75.7216 70.5,76C 54.7528,79.4151 39.0862,79.2484 23.5,75.5C 20.9591,74.0633 18.2924,72.8966 15.5,72C 14.7476,71.3292 14.4142,70.4959 14.5,69.5 Z"/></g>
<g><path style="opacity:0.247" fill="#fee7cd" d="M 99.5,73.5 C 115.338,78.3567 131.338,78.69 147.5,74.5C 146.319,76.0672 144.653,76.9005 142.5,77C 129.109,79.149 115.775,78.8156 102.5,76C 101.429,75.1482 100.429,74.3149 99.5,73.5 Z"/></g>
<g><path style="opacity:0.384" fill="#fde5c9" d="M 621.5,74.5 C 636.838,78.4161 652.171,78.4161 667.5,74.5C 666.319,76.0672 664.653,76.9005 662.5,77C 650.833,79 639.167,79 627.5,77C 625.148,76.7599 623.148,75.9265 621.5,74.5 Z"/></g>
</svg>
